<?xml version="1.0" standalone="no"?>
<!DOCTYPE svg PUBLIC "-//W3C//DTD SVG 1.1//EN" "http://www.w3.org/Graphics/SVG/1.1/DTD/svg11.dtd">
<svg xmlns="http://www.w3.org/2000/svg" id="Camada_2" data-name="Camada 2" viewBox="0 0 465.42 491.33" width="465.4200134277344" height="491.3299865722656">
  <defs>
    <style>
      .cls-1 {
        fill: #750e1f;
        stroke-width: 0px;
      }
    </style>
  </defs>
  <g id="Camada_1-2" data-name="Camada 1">
    <g>
      <path class="cls-1" d="m465.42,0v84.1h-76.03v-2.06c36.72-8.4,65.75-40.76,73.79-82.04h2.24Z"/>
      <path class="cls-1" d="m465.42,134.75v84.1h-76.03v-2.06c36.72-8.4,65.75-40.76,73.79-82.04h2.24Z"/>
      <path class="cls-1" d="m336.62,134.75v84.1h-76.03v-2.06c36.72-8.4,65.75-40.76,73.79-82.04h2.24Z"/>
      <path class="cls-1" d="m465.42,270.49v84.1h-76.03v-2.06c36.72-8.4,65.75-40.76,73.79-82.04h2.24Z"/>
      <path class="cls-1" d="m336.62,270.49v84.1h-76.03v-2.06c36.72-8.4,65.75-40.76,73.79-82.04h2.24Z"/>
      <path class="cls-1" d="m202.86,270.49v84.1h-76.03v-2.06c36.72-8.4,65.75-40.76,73.79-82.04h2.24Z"/>
      <path class="cls-1" d="m202.86,407.23v84.1h-76.03v-2.06c36.72-8.4,65.75-40.76,73.79-82.04h2.24Z"/>
      <path class="cls-1" d="m76.03,407.23v84.1H0v-2.06c36.72-8.4,65.75-40.76,73.79-82.04h2.24Z"/>
      <path class="cls-1" d="m336.62,407.23v84.1h-76.03v-2.06c36.72-8.4,65.75-40.76,73.79-82.04h2.24Z"/>
      <path class="cls-1" d="m465.42,407.23v84.1h-76.03v-2.06c36.72-8.4,65.75-40.76,73.79-82.04h2.24Z"/>
    </g>
  </g>
</svg>