<?xml version="1.0" standalone="no"?>
<!DOCTYPE svg PUBLIC "-//W3C//DTD SVG 1.1//EN" "http://www.w3.org/Graphics/SVG/1.1/DTD/svg11.dtd">
<svg xmlns="http://www.w3.org/2000/svg" id="Camada_2" data-name="Camada 2" viewBox="0 0 228.65 1080" width="228.64999389648438" height="1080">
  <defs>
    <style>
      .cls-1 {
        fill: #b43d00;
      }

      .cls-1, .cls-2, .cls-3 {
        stroke-width: 0px;
      }

      .cls-2 {
        fill: #b73d00;
      }

      .cls-3 {
        fill: #750e1f;
      }
    </style>
  </defs>
  <g id="Camada_1-2" data-name="Camada 1">
    <g>
      <g>
        <path class="cls-1" d="m228.65,589.09h-114.32s0,98.18,0,98.18h.73c61.29,0,111.24-39.96,113.59-89.99v-8.19Z"/>
        <path class="cls-1" d="m114.32,589.09h114.32s0-98.18,0-98.18h-.73c-61.29,0-111.24,39.96-113.59,89.99v8.19Z"/>
      </g>
      <path class="cls-2" d="m114.32,294.55h114.32v98.18h-.73c-61.29,0-111.24-39.96-113.59-89.99v-8.19Z"/>
      <path class="cls-3" d="m114.32,392.73h114.32v98.18h-.73c-61.29,0-111.24-39.96-113.59-89.99v-8.19Z"/>
      <g>
        <path class="cls-3" d="m228.65,687.27h-114.32s0,98.18,0,98.18h.73c61.29,0,111.24-39.96,113.59-89.99v-8.19Z"/>
        <path class="cls-3" d="m228.65,785.45h-114.32s0,98.18,0,98.18h.73c61.29,0,111.24-39.96,113.59-89.99v-8.19Z"/>
      </g>
      <path class="cls-3" d="m228.65,196.36h-114.32v-98.18h.73c61.29,0,111.24,39.96,113.59,89.99v8.19Z"/>
      <path class="cls-2" d="m228.65,294.55h-114.32v-98.18h.73c61.29,0,111.24,39.96,113.59,89.99v8.19Z"/>
      <path class="cls-3" d="m228.65,98.18h-114.32V0h.73c61.29,0,111.24,39.96,113.59,89.99v8.19Z"/>
      <g>
        <path class="cls-3" d="m0,981.82h114.32s0-98.18,0-98.18h-.73c-61.29,0-111.24,39.96-113.59,89.99v8.19Z"/>
        <path class="cls-3" d="m114.32,981.82H0s0,98.18,0,98.18h.73c61.29,0,111.24-39.96,113.59-89.99v-8.19Z"/>
      </g>
      <path class="cls-1" d="m114.32,589.09H0s0,98.18,0,98.18h.73c61.29,0,111.24-39.96,113.59-89.99v-8.19Z"/>
      <path class="cls-3" d="m114.32,589.09H0v-98.18h.73c61.29,0,111.24,39.96,113.59,89.99v8.19Z"/>
      <path class="cls-3" d="m114.32,294.55H0s0,98.18,0,98.18h.73c61.29,0,111.24-39.96,113.59-89.99v-8.19Z"/>
      <path class="cls-3" d="m114.32,392.73H0s0,98.18,0,98.18h.73c61.29,0,111.24-39.96,113.59-89.99v-8.19Z"/>
      <path class="cls-3" d="m114.32,98.18H0s0,98.18,0,98.18h.73c61.29,0,111.24-39.96,113.59-89.99v-8.19Z"/>
      <path class="cls-3" d="m0,196.36h114.32v98.18h-.73c-61.29,0-111.24-39.96-113.59-89.99v-8.19Z"/>
      <path class="cls-3" d="m114.32,98.18H0V0h.73C62.02,0,111.97,39.96,114.32,89.99v8.19Z"/>
      <path class="cls-1" d="m0,785.45h114.32v98.18h-.73C52.3,883.64,2.35,843.68,0,793.65v-8.19Z"/>
      <path class="cls-1" d="m0,687.27h114.32v98.18h-.73C52.3,785.45,2.35,745.5,0,695.46v-8.19Z"/>
      <g>
        <path class="cls-1" d="m228.64,981.82h-114.32v-98.18h.73c61.29,0,111.24,39.96,113.59,89.99v8.19Z"/>
        <path class="cls-1" d="m228.64,1080h-114.32v-98.18h.73c61.29,0,111.24,39.96,113.59,89.99v8.19Z"/>
      </g>
    </g>
  </g>
</svg>