<?xml version="1.0" standalone="no"?>
<!DOCTYPE svg PUBLIC "-//W3C//DTD SVG 1.1//EN" "http://www.w3.org/Graphics/SVG/1.1/DTD/svg11.dtd">
<svg xmlns="http://www.w3.org/2000/svg" id="Camada_2" data-name="Camada 2" viewBox="0 0 790 262.72" width="790" height="262.7200012207031">
  <defs>
    <style>
      .cls-1 {
        fill: #ebecdc;
        stroke-width: 0px;
      }
    </style>
  </defs>
  <g id="Camada_1-2" data-name="Camada 1">
    <g>
      <g>
        <g>
          <path class="cls-1" d="m336.74,93.03c-3.91,0-7.45-.64-10.62-1.93-3.17-1.29-5.87-3.12-8.11-5.5-2.24-2.38-3.96-5.17-5.14-8.36-1.18-3.19-1.77-6.66-1.77-10.42,0-4.98,1.06-9.45,3.19-13.4,2.13-3.95,5.12-7.04,8.98-9.28,3.85-2.24,8.37-3.36,13.55-3.36,4.55,0,8.53.87,11.96,2.6,3.42,1.74,6.21,4.17,8.37,7.31,2.16,3.14,3.52,6.75,4.1,10.84l-5.96,1.18c-.81-4.87-2.79-8.81-5.96-11.8-3.17-3-7.4-4.49-12.69-4.49-4.09,0-7.57.9-10.44,2.69-2.88,1.79-5.08,4.22-6.6,7.27-1.53,3.05-2.29,6.54-2.29,10.46s.75,7.52,2.24,10.63c1.5,3.11,3.68,5.54,6.56,7.31,2.88,1.76,6.42,2.65,10.62,2.65,3.57,0,6.65-.71,9.24-2.14,2.59-1.43,4.66-3.4,6.21-5.92,1.55-2.52,2.62-5.43,3.19-8.74l5.96,1.01c-.58,4.2-1.96,7.9-4.14,11.09-2.19,3.19-4.99,5.71-8.42,7.56-3.43,1.85-7.44,2.77-12.04,2.77Z"/>
          <path class="cls-1" d="m378.43,92.95c-2.71,0-5.04-.39-6.99-1.18-1.96-.78-3.47-2-4.53-3.65-1.07-1.65-1.6-3.65-1.6-6.01,0-3.3,1.15-6.08,3.45-8.32,2.3-2.24,5.78-3.36,10.44-3.36h15.19l.09,4.79h-14.59c-2.82,0-4.98.53-6.47,1.6-1.5,1.06-2.24,2.63-2.24,4.7,0,1.06.27,2.09.82,3.07.55.98,1.45,1.78,2.72,2.39,1.27.62,2.96.92,5.09.92,2.7,0,5.06-.43,7.08-1.3,2.01-.87,3.57-2.07,4.66-3.61,1.09-1.54,1.64-3.29,1.64-5.25v-9.83c0-3.47-.73-6.1-2.2-7.9-1.47-1.79-3.99-2.69-7.55-2.69-3.28,0-5.81.77-7.6,2.31-1.78,1.54-2.97,4.13-3.54,7.77l-5.7-.92c.46-3.19,1.39-5.84,2.81-7.94,1.41-2.1,3.29-3.68,5.65-4.75,2.36-1.06,5.18-1.6,8.46-1.6,3.68,0,6.66.59,8.93,1.76,2.27,1.18,3.94,2.94,5.01,5.29,1.06,2.35,1.6,5.18,1.6,8.49v24.36h-5.87v-11.34l1.47,1.26h-1.99l.95-5.04c.06,3.59-.6,6.55-1.99,8.91-1.38,2.35-3.21,4.12-5.48,5.29-2.27,1.18-4.85,1.76-7.72,1.76Zm-3.63-43.6l-1.29-3.61,20.37-7.48,1.55,4.12-20.63,6.97Z"/>
          <path class="cls-1" d="m402.51,53.04h26.07v5.12h-26.07v-5.12Zm6.56,27.72v-38.9h5.87v38.31c0,2.35.53,4.16,1.6,5.42,1.06,1.26,2.78,1.89,5.14,1.89,1.21,0,2.3-.08,3.28-.25.98-.17,2.04-.42,3.19-.76l.86,5.29c-.86.22-1.73.45-2.59.67-.86.22-1.76.38-2.68.46-.92.08-1.93.13-3.02.13-2.71,0-4.92-.53-6.65-1.6-1.73-1.06-2.99-2.52-3.8-4.37-.81-1.85-1.21-3.95-1.21-6.3Z"/>
          <path class="cls-1" d="m450.94,93.03c-4.14,0-7.74-.81-10.79-2.44-3.05-1.62-5.41-3.96-7.08-7.01-1.67-3.05-2.5-6.68-2.5-10.88s.86-8.01,2.59-11.09c1.73-3.08,4.11-5.43,7.16-7.06,3.05-1.62,6.53-2.44,10.44-2.44s7.31.77,10.01,2.31c2.7,1.54,4.76,3.65,6.17,6.34,1.41,2.69,2.11,5.85,2.11,9.49,0,.5.01,1.11.04,1.81.03.7-.01,1.47-.13,2.31h-34.53v-4.7h30.73l-1.64,1.85c.06-4.54-.96-8.07-3.06-10.59-2.1-2.52-5.4-3.78-9.88-3.78s-7.81,1.3-10.31,3.91c-2.5,2.6-3.76,6.46-3.76,11.55,0,4.76,1.27,8.49,3.8,11.17,2.53,2.69,6.07,4.03,10.62,4.03,2.65,0,4.8-.41,6.47-1.22,1.67-.81,2.99-1.9,3.97-3.28.98-1.37,1.7-2.9,2.16-4.58l5.35,1.51c-.69,2.63-1.81,4.9-3.37,6.81-1.55,1.9-3.54,3.37-5.96,4.41-2.42,1.03-5.3,1.55-8.63,1.55Z"/>
          <path class="cls-1" d="m472.34,72.62c0-6.33,1.51-11.34,4.53-15.04,3.02-3.7,7.18-5.52,12.47-5.46,3.8-.06,6.88.69,9.24,2.23,2.36,1.54,4.11,3.65,5.26,6.34,1.15,2.69,1.78,5.77,1.9,9.24l-.52,2.44c0-4.54-1.25-8.19-3.75-10.96s-5.86-4.16-10.06-4.16-7.64,1.36-9.8,4.07c-2.16,2.72-3.24,6.51-3.24,11.38s1.06,8.53,3.19,11.13c2.13,2.6,5.41,3.91,9.84,3.91,2.88,0,5.32-.57,7.34-1.72,2.01-1.15,3.6-2.84,4.75-5.08,1.15-2.24,1.73-4.93,1.73-8.07l.52,2.35c-.12,2.63-.52,5.03-1.21,7.18-.69,2.16-1.67,4.03-2.93,5.63-1.27,1.6-2.89,2.83-4.88,3.7-1.98.87-4.36,1.3-7.12,1.3-5.64,0-9.93-1.85-12.86-5.55-2.93-3.7-4.4-8.65-4.4-14.87Zm34.44-5.63h-1.9l-.35-1.93h2.24v1.93Zm-.43,13.36h-1.73l.17-2.02h1.55v2.02Zm-1.12,11.76v-51.5h5.96v51.5h-5.96Z"/>
          <path class="cls-1" d="m524.65,64.38h1.38l-.78,2.94c.23-2.58.68-4.76,1.34-6.55.66-1.79,1.51-3.26,2.55-4.41,1.04-1.15,2.29-1.99,3.75-2.52,1.47-.53,3.15-.8,5.05-.8h2.68v6.3h-3.28c-2.65,0-4.86.38-6.65,1.13-1.78.76-3.09,1.95-3.93,3.57-.83,1.63-1.25,3.84-1.25,6.64v21.42h-5.87v-39.06h5.87v13.36l-.86-2.02Z"/>
          <path class="cls-1" d="m555.81,92.95c-2.71,0-5.04-.39-6.99-1.18-1.96-.78-3.47-2-4.53-3.65-1.07-1.65-1.6-3.65-1.6-6.01,0-3.3,1.15-6.08,3.45-8.32,2.3-2.24,5.78-3.36,10.44-3.36h15.19l.09,4.79h-14.59c-2.82,0-4.98.53-6.47,1.6-1.5,1.06-2.24,2.63-2.24,4.7,0,1.06.27,2.09.82,3.07.55.98,1.45,1.78,2.72,2.39,1.27.62,2.96.92,5.09.92,2.7,0,5.06-.43,7.08-1.3,2.01-.87,3.57-2.07,4.66-3.61,1.09-1.54,1.64-3.29,1.64-5.25v-9.83c0-3.47-.73-6.1-2.2-7.9-1.47-1.79-3.99-2.69-7.55-2.69-3.28,0-5.81.77-7.6,2.31-1.78,1.54-2.97,4.13-3.54,7.77l-5.7-.92c.46-3.19,1.39-5.84,2.81-7.94,1.41-2.1,3.29-3.68,5.65-4.75,2.36-1.06,5.18-1.6,8.46-1.6,3.68,0,6.66.59,8.93,1.76,2.27,1.18,3.94,2.94,5.01,5.29,1.06,2.35,1.6,5.18,1.6,8.49v24.36h-5.87v-11.34l1.47,1.26h-1.99l.95-5.04c.06,3.59-.6,6.55-1.99,8.91-1.38,2.35-3.21,4.12-5.48,5.29-2.27,1.18-4.85,1.76-7.72,1.76Z"/>
        </g>
        <g>
          <path class="cls-1" d="m499.02,195.42h2.42l-1.47,3.53c.29-3.64,1.06-6.59,2.33-8.86,1.27-2.27,2.92-3.92,4.96-4.96,2.04-1.03,4.36-1.55,6.95-1.55,3.22,0,5.83.64,7.81,1.93,1.99,1.29,3.42,3.04,4.32,5.25.89,2.21,1.34,4.72,1.34,7.52v25.79h-9.32v-23.27c0-1.68-.27-3.18-.82-4.49-.55-1.32-1.44-2.41-2.68-3.28-1.24-.87-2.89-1.3-4.96-1.3-1.96,0-3.66.35-5.09,1.05-1.44.7-2.55,1.72-3.32,3.07-.78,1.34-1.17,2.97-1.17,4.87v23.35h-9.32v-39.49h9.32v13.53l-1.29-2.69Z"/>
          <path class="cls-1" d="m317.5,116.25l4.49-6.22v48.05h-9.84v-50.41h22.53c4.09,0,7.45.58,10.1,1.72,2.65,1.15,4.62,2.81,5.91,5,1.29,2.18,1.94,4.82,1.94,7.9,0,3.42-.75,6.29-2.24,8.61-1.5,2.32-3.66,4.1-6.47,5.34-2.82,1.23-6.19,1.85-10.1,1.85h-16.06v-8.48h15.97c2.93,0,5.21-.62,6.82-1.85,1.61-1.23,2.42-2.97,2.42-5.21,0-1.29-.3-2.42-.91-3.4-.6-.98-1.53-1.71-2.76-2.18-1.24-.48-2.95-.71-5.14-.71h-16.66Zm21.49,18.65l17,23.02v.17h-11.83l-14.67-21.51,9.5-1.68Z"/>
          <path class="cls-1" d="m375.5,159.09c-4.14,0-7.77-.77-10.88-2.31-3.11-1.54-5.52-3.82-7.25-6.85-1.73-3.03-2.59-6.72-2.59-11.09s.83-8.32,2.5-11.51c1.67-3.19,4.07-5.63,7.21-7.31,3.14-1.68,6.8-2.52,11.01-2.52s7.58.79,10.32,2.35c2.73,1.57,4.78,3.75,6.13,6.55,1.35,2.8,2.03,5.99,2.03,9.58,0,.84.01,1.67.04,2.48.03.81-.04,1.72-.22,2.73h-32.54v-6.64h26.5l-2.24,2.69c.11-3.92-.66-6.92-2.33-8.99-1.67-2.07-4.32-3.11-7.94-3.11s-6.42,1.08-8.37,3.23c-1.96,2.16-2.93,5.48-2.93,9.95s.99,7.46,2.98,9.62c1.99,2.16,4.88,3.23,8.68,3.23,2.13,0,3.87-.31,5.22-.92,1.35-.61,2.39-1.47,3.11-2.56.72-1.09,1.31-2.28,1.77-3.57l8.11,2.18c-.75,2.58-1.89,4.82-3.41,6.72-1.53,1.9-3.48,3.39-5.87,4.45-2.39,1.06-5.4,1.6-9.02,1.6Z"/>
          <path class="cls-1" d="m408.91,113.31h-10.1v-6.72h10.1v6.72Zm-.34,44.78h-9.32v-39.49h9.32v39.49Z"/>
          <path class="cls-1" d="m412.88,118.6h26.76v7.65h-26.76v-7.65Zm5.44,27.47v-37.97h9.32v36.46c0,1.9.43,3.35,1.29,4.33.86.98,2.3,1.47,4.32,1.47,1.04,0,2.03-.1,2.98-.29.95-.2,1.88-.41,2.8-.63l1.12,8.32c-.98.28-1.9.53-2.76.76-.86.22-1.8.39-2.81.5-1.01.11-2.17.17-3.5.17-2.99,0-5.42-.59-7.29-1.76-1.87-1.18-3.25-2.74-4.14-4.71-.89-1.96-1.34-4.17-1.34-6.64Z"/>
          <path class="cls-1" d="m461.99,159.18c-4.32,0-8.03-.84-11.14-2.52-3.11-1.68-5.5-4.1-7.16-7.27-1.67-3.16-2.5-6.87-2.5-11.13s.88-8.09,2.63-11.17c1.75-3.08,4.19-5.43,7.29-7.06,3.11-1.62,6.73-2.44,10.88-2.44s7.77.81,10.88,2.44c3.11,1.63,5.52,3.98,7.25,7.06,1.73,3.08,2.59,6.81,2.59,11.17,0,6.5-1.84,11.61-5.52,15.33-3.68,3.73-8.75,5.59-15.19,5.59Zm0-33.35c-3.63,0-6.45,1.11-8.46,3.32-2.02,2.21-3.02,5.22-3.02,9.03,0,2.52.44,4.73,1.34,6.64.89,1.91,2.19,3.39,3.88,4.45,1.7,1.06,3.76,1.6,6.17,1.6,3.68,0,6.53-1.16,8.55-3.49,2.01-2.32,3.02-5.39,3.02-9.2,0-2.52-.46-4.71-1.38-6.55-.92-1.85-2.24-3.28-3.97-4.29-1.73-1.01-3.77-1.51-6.13-1.51Z"/>
          <path class="cls-1" d="m495.48,131.62l1.73-.09-.95,3.11c.4-3.25.93-5.92,1.6-8.02.66-2.1,1.47-3.72,2.42-4.87.95-1.15,2.1-1.96,3.45-2.44,1.35-.48,2.86-.72,4.53-.72h2.33v10.17h-3.97c-2.42,0-4.37.29-5.87.88-1.5.59-2.58,1.55-3.24,2.9-.66,1.34-.99,3.19-.99,5.55v19.99h-9.32v-39.49h9.32v15.46l-1.04-2.44Z"/>
          <path class="cls-1" d="m552.28,117.09h-6.99l5.52-7.31c-.63,2.07-1.38,4.36-2.24,6.85-.86,2.49-1.78,5.04-2.76,7.65-.98,2.6-1.93,5.14-2.85,7.6l-10.27,26.21h-10.27l20.8-50.41h11.22l20.72,50.41h-10.62l-10.01-26.21c-.92-2.46-1.9-5.01-2.93-7.64-1.04-2.63-1.97-5.18-2.81-7.65-.83-2.46-1.54-4.7-2.11-6.72l5.61,7.22Zm10.01,28.48h-27.54v-7.81h27.54v7.81Z"/>
          <path class="cls-1" d="m585,129.44h2.42l-1.47,3.53c.29-3.64,1.06-6.59,2.33-8.86,1.27-2.27,2.92-3.92,4.96-4.96,2.04-1.03,4.36-1.55,6.95-1.55,3.22,0,5.83.64,7.81,1.93,1.99,1.29,3.42,3.04,4.32,5.25.89,2.21,1.34,4.72,1.34,7.52v25.79h-9.32v-23.27c0-1.68-.27-3.18-.82-4.49-.55-1.32-1.44-2.41-2.68-3.28-1.24-.87-2.89-1.3-4.96-1.3-1.96,0-3.66.35-5.09,1.05-1.44.7-2.55,1.72-3.32,3.07s-1.17,2.97-1.17,4.87v23.35h-9.32v-39.49h9.32v13.53l-1.29-2.69Z"/>
          <path class="cls-1" d="m616.33,118.6h26.76v7.65h-26.76v-7.65Zm5.44,27.47v-37.97h9.32v36.46c0,1.9.43,3.35,1.29,4.33.86.98,2.3,1.47,4.32,1.47,1.04,0,2.03-.1,2.98-.29.95-.2,1.88-.41,2.8-.63l1.12,8.32c-.98.28-1.9.53-2.76.76-.86.22-1.8.39-2.81.5-1.01.11-2.17.17-3.5.17-2.99,0-5.42-.59-7.29-1.76-1.87-1.18-3.25-2.74-4.14-4.71-.89-1.96-1.34-4.17-1.34-6.64Z"/>
          <path class="cls-1" d="m665.44,159.18c-4.32,0-8.03-.84-11.14-2.52-3.11-1.68-5.5-4.1-7.16-7.27-1.67-3.16-2.5-6.87-2.5-11.13s.88-8.09,2.63-11.17c1.75-3.08,4.19-5.43,7.29-7.06,3.11-1.62,6.73-2.44,10.88-2.44s7.77.81,10.88,2.44c3.11,1.63,5.52,3.98,7.25,7.06,1.73,3.08,2.59,6.81,2.59,11.17,0,6.5-1.84,11.61-5.52,15.33-3.68,3.73-8.75,5.59-15.19,5.59Zm0-33.35c-3.63,0-6.45,1.11-8.46,3.32-2.02,2.21-3.02,5.22-3.02,9.03,0,2.52.44,4.73,1.34,6.64.89,1.91,2.19,3.39,3.88,4.45,1.7,1.06,3.76,1.6,6.17,1.6,3.68,0,6.53-1.16,8.55-3.49,2.01-2.32,3.02-5.39,3.02-9.2,0-2.52-.46-4.71-1.38-6.55-.92-1.85-2.24-3.28-3.97-4.29-1.73-1.01-3.77-1.51-6.13-1.51Zm-2.24-17.73h3.63l-9.5,7.23-2.76-3.11,9.24-8.91h2.42l9.24,8.91-2.76,3.11-9.5-7.23Z"/>
          <path class="cls-1" d="m698.68,129.44h2.42l-1.47,3.53c.29-3.64,1.06-6.59,2.33-8.86,1.27-2.27,2.92-3.92,4.96-4.96,2.04-1.03,4.36-1.55,6.95-1.55,3.22,0,5.83.64,7.81,1.93,1.99,1.29,3.42,3.04,4.32,5.25.89,2.21,1.34,4.72,1.34,7.52v25.79h-9.32v-23.27c0-1.68-.27-3.18-.82-4.49-.55-1.32-1.44-2.41-2.68-3.28-1.24-.87-2.89-1.3-4.96-1.3-1.96,0-3.66.35-5.09,1.05-1.44.7-2.55,1.72-3.32,3.07-.78,1.34-1.17,2.97-1.17,4.87v23.35h-9.32v-39.49h9.32v13.53l-1.29-2.69Z"/>
          <path class="cls-1" d="m743.73,113.31h-10.1v-6.72h10.1v6.72Zm-.34,44.78h-9.32v-39.49h9.32v39.49Z"/>
          <path class="cls-1" d="m769.28,159.18c-4.32,0-8.03-.84-11.14-2.52-3.11-1.68-5.5-4.1-7.16-7.27-1.67-3.16-2.5-6.87-2.5-11.13s.88-8.09,2.63-11.17c1.75-3.08,4.19-5.43,7.29-7.06,3.11-1.62,6.73-2.44,10.88-2.44s7.77.81,10.88,2.44c3.11,1.63,5.52,3.98,7.25,7.06,1.73,3.08,2.59,6.81,2.59,11.17,0,6.5-1.84,11.61-5.52,15.33-3.68,3.73-8.75,5.59-15.19,5.59Zm0-33.35c-3.63,0-6.45,1.11-8.46,3.32-2.02,2.21-3.02,5.22-3.02,9.03,0,2.52.44,4.73,1.34,6.64.89,1.91,2.19,3.39,3.88,4.45,1.7,1.06,3.76,1.6,6.17,1.6,3.68,0,6.53-1.16,8.55-3.49,2.01-2.32,3.02-5.39,3.02-9.2,0-2.52-.46-4.71-1.38-6.55-.92-1.85-2.24-3.28-3.97-4.29-1.73-1.01-3.77-1.51-6.13-1.51Z"/>
          <path class="cls-1" d="m339.25,220.87c.52-1.68,1.17-3.66,1.94-5.92.78-2.27,1.57-4.58,2.37-6.93.81-2.35,1.57-4.58,2.29-6.68.72-2.1,1.37-3.88,1.94-5.34l8.72-22.35h14.24v50.41h-9.75v-23.27c0-2.69.04-5.56.13-8.61.09-3.05.17-6.01.26-8.86.09-2.86.13-5.29.13-7.31l3.19,5.54h-5.96l4.23-5.54c-.69,2.18-1.53,4.86-2.5,8.02-.98,3.16-2.04,6.47-3.19,9.91-1.15,3.44-2.39,6.79-3.71,10.04l-7.86,20.08h-9.06l-7.6-20.41c-1.32-3.47-2.56-6.89-3.71-10.25-1.15-3.36-2.2-6.52-3.15-9.49-.95-2.97-1.8-5.68-2.55-8.15l3.54,5.8h-4.66l2.68-5.63c.11,2.13.19,4.61.22,7.43.03,2.83.04,5.75.04,8.78v31.92h-9.32v-50.41h15.36l8.8,22.68c.52,1.29,1.14,2.96,1.86,5,.72,2.04,1.45,4.27,2.2,6.68.75,2.41,1.45,4.73,2.12,6.97.66,2.24,1.17,4.23,1.51,5.96l-4.92-7.81h5.61l-5.44,7.73Z"/>
          <path class="cls-1" d="m388.8,224.91c-2.47,0-4.68-.42-6.6-1.26-1.93-.84-3.42-2.08-4.49-3.74-1.07-1.65-1.6-3.74-1.6-6.26,0-3.75,1.17-6.76,3.5-9.03,2.33-2.27,6.03-3.4,11.09-3.4h13.38l.09,6.72h-12.08c-2.19,0-3.9.37-5.14,1.09-1.24.73-1.86,1.79-1.86,3.19,0,.9.24,1.75.73,2.56.49.81,1.24,1.47,2.24,1.97,1.01.5,2.37.76,4.1.76,2.19,0,4.07-.36,5.65-1.09,1.58-.73,2.79-1.72,3.63-2.98.83-1.26,1.25-2.7,1.25-4.33v-9.49c0-2.74-.59-4.8-1.77-6.18-1.18-1.37-3.18-2.06-6-2.06-2.53,0-4.53.59-6,1.76-1.47,1.18-2.4,3.22-2.8,6.13l-8.81-1.26c.4-2.97,1.28-5.53,2.63-7.69,1.35-2.16,3.28-3.81,5.78-4.96,2.5-1.15,5.71-1.72,9.62-1.72s7.02.62,9.5,1.85c2.47,1.23,4.29,3.04,5.44,5.42,1.15,2.38,1.73,5.25,1.73,8.61v24.53h-9.32v-12.01l1.73,2.1h-2.33l1.21-5.88c-.06,3.59-.71,6.62-1.94,9.12-1.24,2.49-2.91,4.37-5.01,5.63-2.1,1.26-4.62,1.89-7.55,1.89Z"/>
          <path class="cls-1" d="m426.6,197.6l1.73-.09-.95,3.11c.4-3.25.93-5.92,1.6-8.02.66-2.1,1.47-3.72,2.42-4.87.95-1.15,2.1-1.96,3.45-2.44,1.35-.48,2.86-.72,4.53-.72h2.33v10.17h-3.97c-2.42,0-4.37.29-5.87.88-1.5.59-2.58,1.55-3.24,2.9-.66,1.34-.99,3.19-.99,5.55v19.99h-9.32v-39.49h9.32v15.46l-1.04-2.44Z"/>
          <path class="cls-1" d="m442.83,184.58h26.76v7.65h-26.76v-7.65Zm5.44,27.47v-37.97h9.32v36.46c0,1.9.43,3.35,1.29,4.33.86.98,2.3,1.47,4.32,1.47,1.04,0,2.03-.1,2.98-.29.95-.2,1.88-.41,2.8-.63l1.12,8.32c-.98.28-1.9.53-2.76.76-.86.22-1.8.39-2.81.5-1.01.11-2.17.17-3.5.17-2.99,0-5.42-.59-7.29-1.76-1.87-1.18-3.25-2.74-4.14-4.71-.89-1.96-1.34-4.17-1.34-6.64Z"/>
          <path class="cls-1" d="m484.26,179.29h-10.1v-6.72h10.1v6.72Zm-.34,44.78h-9.32v-39.49h9.32v39.49Z"/>
          <path class="cls-1" d="m550.21,225.16c-4.32,0-7.77-.59-10.36-1.76-2.59-1.18-4.53-2.81-5.83-4.91-1.29-2.1-2.2-4.41-2.72-6.93l8.72-1.68c.46,1.68,1.06,3.14,1.81,4.37.75,1.23,1.81,2.21,3.19,2.94,1.38.73,3.16,1.09,5.35,1.09,2.47,0,4.32-.46,5.52-1.38,1.21-.92,1.84-2.14,1.9-3.66,0-.95-.29-1.76-.86-2.44-.58-.67-1.6-1.29-3.06-1.85-1.47-.56-3.55-1.06-6.26-1.51-3.63-.73-6.52-1.62-8.68-2.69-2.16-1.06-3.73-2.38-4.7-3.95-.98-1.57-1.47-3.39-1.47-5.46,0-3.53,1.35-6.37,4.06-8.53,2.7-2.16,6.7-3.24,12-3.24,3.68,0,6.69.49,9.02,1.47,2.33.98,4.14,2.37,5.44,4.16,1.29,1.79,2.23,3.98,2.8,6.55l-8.89,2.02c-.58-2.58-1.53-4.47-2.85-5.67-1.32-1.2-3.17-1.81-5.52-1.81s-3.96.41-5.14,1.22c-1.18.81-1.77,1.95-1.77,3.4,0,.95.26,1.79.78,2.52.52.73,1.5,1.36,2.94,1.89,1.44.53,3.51,1.05,6.21,1.55,3.74.67,6.73,1.57,8.98,2.69,2.24,1.12,3.83,2.46,4.75,4.03.92,1.57,1.38,3.36,1.38,5.38,0,2.41-.6,4.54-1.81,6.38-1.21,1.85-3.05,3.28-5.52,4.28-2.48,1.01-5.61,1.51-9.41,1.51Z"/>
          <path class="cls-1" d="m594.66,224.07h-9.75v-50.41h9.75v50.41Zm-6.04-18.99v-8.99h29.43v8.99h-29.43Zm.86-31.42h31.07v8.99h-31.07v-8.99Z"/>
          <path class="cls-1" d="m636.44,179.29h-10.1v-6.72h10.1v6.72Zm-.34,44.78h-9.32v-39.49h9.32v39.49Z"/>
          <path class="cls-1" d="m652.49,172.57v51.5h-9.32v-51.5h9.32Z"/>
          <path class="cls-1" d="m667,195.42h2.5l-1.64,3.61c.35-3.7,1.15-6.69,2.42-8.99,1.27-2.3,2.94-3.95,5.01-4.96,2.07-1.01,4.37-1.51,6.91-1.51,3.22,0,5.83.64,7.81,1.93,1.99,1.29,3.42,3.04,4.32,5.25.89,2.21,1.34,4.72,1.34,7.52v25.79h-9.32v-23.27c0-1.68-.27-3.18-.82-4.49-.55-1.32-1.42-2.41-2.63-3.28-1.21-.87-2.88-1.3-5.01-1.3-2.02,0-3.73.35-5.14,1.05-1.41.7-2.5,1.72-3.28,3.07-.78,1.34-1.17,2.97-1.17,4.87v23.35h-9.32v-51.5h9.32v25.54l-1.29-2.69Z"/>
          <path class="cls-1" d="m720.6,225.16c-4.32,0-8.03-.84-11.14-2.52-3.11-1.68-5.5-4.1-7.16-7.27-1.67-3.16-2.5-6.87-2.5-11.13s.88-8.09,2.63-11.17c1.75-3.08,4.19-5.43,7.29-7.06,3.11-1.62,6.73-2.44,10.88-2.44s7.77.81,10.88,2.44c3.11,1.63,5.52,3.98,7.25,7.06,1.73,3.08,2.59,6.81,2.59,11.17,0,6.5-1.84,11.61-5.52,15.33-3.68,3.73-8.75,5.59-15.19,5.59Zm0-33.35c-3.63,0-6.45,1.11-8.46,3.32-2.02,2.21-3.02,5.22-3.02,9.03,0,2.52.44,4.73,1.34,6.64.89,1.91,2.19,3.39,3.88,4.45,1.7,1.06,3.76,1.6,6.17,1.6,3.68,0,6.53-1.16,8.55-3.49,2.01-2.32,3.02-5.39,3.02-9.2,0-2.52-.46-4.71-1.38-6.55-.92-1.85-2.24-3.28-3.97-4.29-1.73-1.01-3.77-1.51-6.13-1.51Z"/>
        </g>
      </g>
      <g>
        <polygon class="cls-1" points="233.11 97.74 233.06 86.99 212.31 74.22 184.21 75.38 170.08 86.65 170.12 95.96 173.13 93.4 173.1 86.93 178.05 83.5 178.05 89.95 180.36 87.8 189.97 87.34 189.98 80.28 206.71 79.51 206.7 87.32 214.84 87.15 218.25 88.91 218.25 81.13 229.25 87.46 229.25 94.46 233.11 97.74"/>
        <polygon class="cls-1" points="237.38 112.92 213.59 100.79 181.36 101.47 163.86 112.07 161.15 105.73 181.72 92.52 213.76 91.9 239.15 105.37 239.09 115.61 237.38 117.54 237.38 112.92"/>
        <path class="cls-1" d="m213.11,188.67h-.22l-31.23.73h-.24s-12.67,4.53-12.67,4.53l-.04-9.4,7.48-3.22v-49.1c0-4.23-1.99-5.73-3.85-5.73-1,0-2.01.42-3.01,1.25-.28.23-.55.49-.83.79l-.09-13.28,15.16-8.3c.7-.02,25.25-.94,27.66-.94,2.76,1.39,18.91,8.98,21.58,10.23l1.75,4.97.55,73.63-22.01-6.17Zm7.46-66.17c-3.14,0-5.26,2.31-5.26,5.74v49.25l17.05,4.64v-46.95c0-4.2-3.45-9.29-7.84-11.6-1.37-.71-2.7-1.08-3.95-1.08Zm-23.54-2.59c-4.54,0-8.52,4.32-8.52,9.25v49.68l1.54-.09,15.5-.8v-49.52c0-4.7-3.82-8.52-8.52-8.52Z"/>
        <polygon class="cls-1" points="233.91 211.83 212.42 206.43 212.21 206.42 183.65 206.76 183.45 206.81 167.98 210.81 162.92 200.22 182.35 194.77 212.76 194.05 236 200.04 240.56 203.06 239.13 208.95 235.5 213.72 233.91 211.83"/>
        <path class="cls-1" d="m230.28,31.16C216.4,9.14,202.29.54,202.14.45l-.75-.45-.31.81C177.61,62.23,123.86,140.29,1.03,163.41l-1.03.19.53.9c.21.34,20.79,34.61,64.83,63.54,2.1,1.39,4.1,2.67,6.13,3.91,2.06,1.27,4.25,2.57,6.5,3.86,10.22,5.86,21,11.03,32.05,15.38v-12.19s14.81-1.42,14.81-1.42v17.18l.15.04c.39.11.78.22,1.21.33.05.02.08.03.15.04,5.43,1.37,11.24,2.56,17.28,3.56v-23.49l14.28-1.48v26.94c1.18.13,2.36.25,3.56.37v-46.52s-88.54,12.25-88.54,12.25c-1.57-.98-3.16-2-4.76-3.05-32.79-21.55-52.29-46.12-59.71-56.59C126.42,142.66,179.77,67.33,203.78,7.97c4.22,3.45,13.4,11.92,22.44,26.37,7.8,12.48,14.03,26.94,18.49,42.97,5.6,20.11,8.45,42.78,8.45,67.36,0,13.92-1.05,27.68-3.13,40.89l-10.1-3.52.12,6.8,8.89,3.11c-.06.34-.12.7-.19,1.03-.33,1.78-.7,3.59-1.11,5.53,0,.01,0,.02,0,.03l-7.17-2.1.04,1.28,3.57,3.83-1.7,7.97,2.41.66c-.03.12-.06.24-.1.36-.56,2.03-1.24,4.08-1.89,6.06-.07.21-.14.43-.21.65l-3.39-.69v11.43c-1.38,3.87-2.9,7.03-4.21,9.46,0-8.72-.01-17.78-.01-20.06l-2.56-1.28-20.4-4.6-27.84.33-15.89,3.09-.04,9.18,7.86-1.26v39.45c4.03.22,8.23.37,12.49.44v-41.19l16.86-.52v41.62l1.53-.05c.69-.02,1.37-.05,2.06-.07,1.92-.07,4-.17,6.36-.3v-40.91l17.41,3.46v27.05c.95-1.45,1.67-2.96,2.55-4.48,1.44-2.49,2.84-5.15,4.15-7.87,1.05-2.18,2.09-4.51,3.09-6.92.11-.25.21-.51.32-.76l.21-.51c.14-.32.26-.65.39-.98l.42-1.06c.42-1.06.86-2.22,1.33-3.54.07-.18.13-.37.2-.56l.15-.41c.12-.33.23-.65.34-.97.27-.75.53-1.5.78-2.26.19-.56.37-1.14.56-1.71.13-.4.26-.81.38-1.21l.17-.54c.67-2.13,1.26-4.14,1.8-6.13,1.11-4,2.13-8.15,3.02-12.32.43-2.01.81-3.86,1.14-5.66.43-2.27.85-4.66,1.25-7.13,2.16-13.61,3.25-27.78,3.25-42.12,0-57.1-15.23-93.24-28.01-113.51Zm-72.5,188.98v6.15l-71.36,8.31c-1.98-1.06-3.94-2.14-5.87-3.25l-.52-.29c-.54-.31-1.07-.62-1.59-.93l79.35-9.99Z"/>
      </g>
    </g>
  </g>
</svg>