<?xml version="1.0" standalone="no"?>
<!DOCTYPE svg PUBLIC "-//W3C//DTD SVG 1.1//EN" "http://www.w3.org/Graphics/SVG/1.1/DTD/svg11.dtd">
<svg xmlns="http://www.w3.org/2000/svg" id="Camada_2" data-name="Camada 2" viewBox="0 0 880.98 293.99" width="880.97998046875" height="293.989990234375">
  <defs>
    <style>
      .cls-1 {
        fill: #b73d00;
      }

      .cls-1, .cls-2 {
        stroke-width: 0px;
      }

      .cls-2 {
        fill: #000002;
      }
    </style>
  </defs>
  <g id="Camada_1-2" data-name="Camada 1">
    <g>
      <g>
        <path class="cls-2" d="m375.05,103.9c-4.36,0-8.3-.72-11.83-2.15-3.53-1.43-6.54-3.48-9.04-6.13-2.5-2.65-4.41-5.76-5.72-9.31-1.32-3.56-1.97-7.42-1.97-11.61,0-5.55,1.19-10.53,3.56-14.93,2.37-4.4,5.71-7.85,10-10.34,4.29-2.49,9.33-3.74,15.1-3.74,5.06,0,9.5.97,13.32,2.9,3.81,1.93,6.92,4.65,9.33,8.14,2.4,3.5,3.93,7.52,4.57,12.07l-6.64,1.31c-.9-5.43-3.11-9.81-6.63-13.15-3.53-3.34-8.24-5.01-14.14-5.01-4.55,0-8.43,1-11.64,2.99-3.21,2-5.66,4.7-7.36,8.1-1.7,3.4-2.55,7.29-2.55,11.65s.83,8.38,2.5,11.84c1.67,3.46,4.1,6.18,7.31,8.14,3.21,1.97,7.15,2.95,11.83,2.95,3.97,0,7.41-.8,10.29-2.39,2.89-1.59,5.19-3.79,6.92-6.6,1.73-2.81,2.92-6.05,3.56-9.73l6.64,1.12c-.64,4.68-2.18,8.8-4.62,12.35-2.44,3.56-5.56,6.36-9.38,8.42-3.82,2.06-8.29,3.09-13.42,3.09Z"/>
        <path class="cls-2" d="m421.5,103.81c-3.01,0-5.61-.44-7.79-1.31-2.18-.87-3.86-2.23-5.05-4.07-1.19-1.84-1.78-4.07-1.78-6.69,0-3.68,1.28-6.77,3.85-9.27,2.56-2.5,6.44-3.74,11.64-3.74h16.93l.1,5.34h-16.25c-3.14,0-5.55.59-7.21,1.78-1.67,1.19-2.5,2.93-2.5,5.24,0,1.19.3,2.33.91,3.42.61,1.09,1.62,1.98,3.03,2.67,1.41.69,3.3,1.03,5.67,1.03,3.01,0,5.64-.48,7.89-1.45,2.24-.97,3.97-2.31,5.19-4.02,1.22-1.72,1.83-3.66,1.83-5.85v-10.95c0-3.87-.82-6.8-2.45-8.8-1.64-2-4.44-2.99-8.41-2.99-3.65,0-6.48.86-8.46,2.57-1.99,1.72-3.3,4.6-3.94,8.66l-6.35-1.03c.51-3.56,1.55-6.51,3.13-8.84,1.57-2.34,3.67-4.1,6.3-5.29,2.63-1.18,5.77-1.78,9.42-1.78,4.1,0,7.42.65,9.95,1.97,2.53,1.31,4.39,3.28,5.58,5.9,1.18,2.62,1.78,5.77,1.78,9.45v27.14h-6.54v-12.64l1.64,1.4h-2.21l1.06-5.62c.06,3.99-.67,7.3-2.21,9.92-1.54,2.62-3.58,4.59-6.11,5.9-2.53,1.31-5.4,1.97-8.61,1.97Zm-4.04-48.58l-1.44-4.02,22.7-8.33,1.73,4.59-22.98,7.77Z"/>
        <path class="cls-2" d="m448.33,59.35h29.04v5.71h-29.04v-5.71Zm7.31,30.89v-43.33h6.54v42.68c0,2.62.59,4.63,1.78,6.04,1.18,1.4,3.09,2.11,5.72,2.11,1.35,0,2.56-.09,3.65-.28,1.09-.19,2.28-.47,3.56-.84l.96,5.9c-.96.25-1.92.5-2.89.75-.96.25-1.96.42-2.98.51-1.03.09-2.15.14-3.37.14-3.01,0-5.48-.59-7.41-1.78-1.92-1.18-3.33-2.81-4.23-4.87-.9-2.06-1.35-4.4-1.35-7.02Z"/>
        <path class="cls-2" d="m502.28,103.9c-4.62,0-8.62-.9-12.02-2.71-3.4-1.81-6.03-4.41-7.89-7.81-1.86-3.4-2.79-7.44-2.79-12.12s.96-8.92,2.89-12.35c1.92-3.43,4.58-6.05,7.98-7.86,3.4-1.81,7.28-2.71,11.64-2.71s8.14.86,11.16,2.57c3.01,1.72,5.3,4.07,6.88,7.07,1.57,3,2.36,6.52,2.36,10.58,0,.56.02,1.23.05,2.01.03.78-.02,1.64-.14,2.57h-38.47v-5.24h34.23l-1.83,2.06c.06-5.05-1.07-8.99-3.41-11.79-2.34-2.81-6.01-4.21-11.01-4.21s-8.7,1.45-11.49,4.35c-2.79,2.9-4.18,7.19-4.18,12.87,0,5.3,1.41,9.45,4.23,12.45,2.82,3,6.76,4.49,11.83,4.49,2.95,0,5.35-.45,7.21-1.36,1.86-.9,3.33-2.12,4.42-3.65,1.09-1.53,1.89-3.23,2.4-5.1l5.96,1.68c-.77,2.93-2.02,5.46-3.75,7.58-1.73,2.12-3.94,3.76-6.64,4.91-2.69,1.15-5.9,1.73-9.62,1.73Z"/>
        <path class="cls-2" d="m526.13,81.16c0-7.05,1.68-12.63,5.05-16.75,3.37-4.12,8-6.15,13.9-6.08,4.23-.06,7.66.76,10.29,2.48,2.63,1.72,4.58,4.07,5.87,7.07,1.28,3,1.99,6.43,2.12,10.3l-.58,2.71c0-5.05-1.39-9.13-4.18-12.21-2.79-3.09-6.52-4.63-11.2-4.63s-8.51,1.51-10.92,4.54c-2.4,3.03-3.61,7.25-3.61,12.68s1.19,9.5,3.56,12.4c2.37,2.9,6.03,4.35,10.96,4.35,3.21,0,5.93-.64,8.17-1.92,2.24-1.28,4.01-3.17,5.29-5.66,1.28-2.5,1.92-5.49,1.92-8.99l.58,2.62c-.13,2.93-.58,5.6-1.35,8-.77,2.4-1.86,4.49-3.27,6.27-1.41,1.78-3.22,3.15-5.43,4.12-2.21.97-4.86,1.45-7.93,1.45-6.28,0-11.06-2.06-14.33-6.18-3.27-4.12-4.9-9.64-4.9-16.57Zm38.37-6.27h-2.12l-.39-2.15h2.5v2.15Zm-.48,14.88h-1.92l.19-2.25h1.73v2.25Zm-1.25,13.1v-57.37h6.64v57.37h-6.64Z"/>
        <path class="cls-2" d="m584.41,71.99h1.54l-.87,3.28c.25-2.87.75-5.3,1.49-7.3.74-2,1.68-3.63,2.84-4.91,1.15-1.28,2.55-2.21,4.18-2.81,1.63-.59,3.51-.89,5.63-.89h2.98v7.02h-3.65c-2.95,0-5.42.42-7.41,1.26-1.99.84-3.45,2.17-4.38,3.98-.93,1.81-1.39,4.27-1.39,7.39v23.87h-6.54v-43.52h6.54v14.88l-.96-2.25Z"/>
        <path class="cls-2" d="m619.12,103.81c-3.01,0-5.61-.44-7.79-1.31-2.18-.87-3.86-2.23-5.05-4.07-1.19-1.84-1.78-4.07-1.78-6.69,0-3.68,1.28-6.77,3.85-9.27,2.56-2.5,6.44-3.74,11.64-3.74h16.93l.1,5.34h-16.25c-3.14,0-5.55.59-7.21,1.78-1.67,1.19-2.5,2.93-2.5,5.24,0,1.19.3,2.33.91,3.42.61,1.09,1.62,1.98,3.03,2.67,1.41.69,3.3,1.03,5.67,1.03,3.01,0,5.64-.48,7.89-1.45,2.24-.97,3.97-2.31,5.19-4.02,1.22-1.72,1.83-3.66,1.83-5.85v-10.95c0-3.87-.82-6.8-2.45-8.8-1.64-2-4.44-2.99-8.41-2.99-3.65,0-6.48.86-8.46,2.57-1.99,1.72-3.3,4.6-3.94,8.66l-6.35-1.03c.51-3.56,1.55-6.51,3.13-8.84,1.57-2.34,3.67-4.1,6.3-5.29,2.63-1.18,5.77-1.78,9.42-1.78,4.1,0,7.42.65,9.95,1.97,2.53,1.31,4.39,3.28,5.58,5.9,1.18,2.62,1.78,5.77,1.78,9.45v27.14h-6.54v-12.64l1.64,1.4h-2.21l1.06-5.62c.06,3.99-.67,7.3-2.21,9.92-1.54,2.62-3.58,4.59-6.11,5.9-2.53,1.31-5.4,1.97-8.61,1.97Z"/>
      </g>
      <g>
        <path class="cls-2" d="m556.81,217.97h2.69l-1.64,3.93c.32-4.05,1.19-7.35,2.6-9.87,1.41-2.53,3.25-4.37,5.53-5.52,2.27-1.15,4.86-1.73,7.74-1.73,3.59,0,6.49.72,8.7,2.15,2.21,1.44,3.81,3.39,4.81,5.85.99,2.46,1.49,5.26,1.49,8.38v28.73h-10.39v-25.93c0-1.87-.3-3.54-.91-5.01-.61-1.47-1.6-2.68-2.98-3.65-1.38-.97-3.22-1.45-5.53-1.45-2.18,0-4.07.39-5.67,1.17-1.6.78-2.84,1.92-3.7,3.42-.87,1.5-1.3,3.31-1.3,5.43v26.02h-10.39v-43.99h10.39v15.07l-1.44-3Z"/>
        <path class="cls-2" d="m354.57,129.77l5-6.93v53.54h-10.96v-56.16h25.1c4.55,0,8.3.64,11.25,1.92,2.95,1.28,5.14,3.13,6.59,5.57,1.44,2.43,2.16,5.37,2.16,8.8,0,3.81-.83,7.01-2.5,9.59-1.67,2.59-4.07,4.57-7.21,5.94-3.14,1.37-6.89,2.06-11.25,2.06h-17.89v-9.45h17.79c3.27,0,5.8-.69,7.6-2.06,1.79-1.37,2.69-3.31,2.69-5.8,0-1.43-.34-2.7-1.01-3.79-.67-1.09-1.7-1.9-3.08-2.43-1.38-.53-3.29-.79-5.72-.79h-18.56Zm23.95,20.78l18.94,25.65v.19h-13.18l-16.35-23.96,10.58-1.87Z"/>
        <path class="cls-2" d="m419.19,177.5c-4.62,0-8.66-.86-12.12-2.57-3.46-1.71-6.15-4.26-8.08-7.63-1.92-3.37-2.89-7.49-2.89-12.36s.93-9.27,2.79-12.82c1.86-3.56,4.54-6.27,8.03-8.14,3.49-1.87,7.58-2.81,12.26-2.81s8.45.87,11.49,2.62c3.04,1.75,5.32,4.18,6.83,7.3,1.51,3.12,2.26,6.68,2.26,10.67,0,.94.02,1.86.05,2.76.03.91-.05,1.92-.24,3.04h-36.26v-7.39h29.52l-2.5,2.99c.13-4.37-.74-7.7-2.6-10.01-1.86-2.31-4.81-3.46-8.85-3.46s-7.15,1.2-9.33,3.6c-2.18,2.4-3.27,6.1-3.27,11.09s1.11,8.31,3.32,10.72c2.21,2.4,5.43,3.6,9.67,3.6,2.37,0,4.31-.34,5.82-1.03,1.51-.68,2.66-1.64,3.46-2.85.8-1.22,1.46-2.54,1.97-3.98l9.04,2.43c-.83,2.87-2.1,5.37-3.8,7.49-1.7,2.12-3.88,3.78-6.54,4.96-2.66,1.18-6.01,1.78-10.05,1.78Z"/>
        <path class="cls-2" d="m456.41,126.5h-11.25v-7.49h11.25v7.49Zm-.38,49.89h-10.39v-43.99h10.39v43.99Z"/>
        <path class="cls-2" d="m460.83,132.39h29.81v8.52h-29.81v-8.52Zm6.06,30.61v-42.31h10.39v40.62c0,2.12.48,3.73,1.44,4.82.96,1.09,2.56,1.64,4.81,1.64,1.15,0,2.26-.11,3.32-.33,1.06-.22,2.1-.45,3.12-.7l1.25,9.26c-1.09.31-2.12.59-3.08.84-.96.25-2,.43-3.13.56-1.12.12-2.42.19-3.89.19-3.33,0-6.04-.65-8.13-1.96-2.08-1.31-3.62-3.06-4.62-5.24-1-2.18-1.49-4.65-1.49-7.39Z"/>
        <path class="cls-2" d="m515.55,177.6c-4.81,0-8.94-.93-12.41-2.81-3.46-1.87-6.12-4.57-7.98-8.1-1.86-3.52-2.79-7.66-2.79-12.4s.98-9.02,2.93-12.45c1.96-3.43,4.66-6.05,8.13-7.86,3.46-1.81,7.5-2.71,12.12-2.71s8.65.9,12.12,2.71c3.46,1.81,6.15,4.43,8.08,7.86,1.92,3.43,2.89,7.58,2.89,12.45,0,7.24-2.05,12.93-6.15,17.08-4.1,4.15-9.75,6.22-16.93,6.22Zm0-37.16c-4.04,0-7.18,1.23-9.42,3.7-2.24,2.46-3.37,5.82-3.37,10.06,0,2.81.5,5.27,1.49,7.39.99,2.12,2.44,3.78,4.33,4.96,1.89,1.19,4.18,1.78,6.88,1.78,4.1,0,7.27-1.29,9.52-3.88,2.24-2.59,3.37-6,3.37-10.25,0-2.81-.51-5.24-1.54-7.3-1.03-2.06-2.5-3.65-4.42-4.77-1.92-1.12-4.2-1.68-6.83-1.68Z"/>
        <path class="cls-2" d="m552.86,146.9l1.92-.1-1.06,3.46c.45-3.62,1.04-6.6,1.78-8.94.74-2.34,1.64-4.15,2.69-5.43,1.06-1.28,2.34-2.18,3.85-2.71,1.51-.53,3.19-.8,5.05-.8h2.6v11.33h-4.42c-2.69,0-4.87.33-6.54.98-1.67.65-2.87,1.73-3.61,3.23-.74,1.5-1.11,3.56-1.11,6.18v22.27h-10.39v-43.99h10.39v17.22l-1.15-2.71Z"/>
        <path class="cls-2" d="m616.14,130.71h-7.79l6.15-8.14c-.71,2.31-1.54,4.85-2.5,7.63-.96,2.78-1.99,5.62-3.08,8.52-1.09,2.9-2.15,5.73-3.17,8.47l-11.44,29.2h-11.44l23.18-56.16h12.5l23.08,56.16h-11.83l-11.16-29.2c-1.03-2.74-2.12-5.58-3.27-8.52-1.15-2.93-2.2-5.77-3.13-8.52-.93-2.74-1.72-5.24-2.36-7.49l6.25,8.05Zm11.16,31.73h-30.68v-8.7h30.68v8.7Z"/>
        <path class="cls-2" d="m652.59,144.46h2.69l-1.64,3.93c.32-4.05,1.19-7.35,2.6-9.87,1.41-2.53,3.25-4.37,5.53-5.52,2.27-1.15,4.86-1.73,7.74-1.73,3.59,0,6.49.72,8.7,2.15,2.21,1.44,3.81,3.39,4.81,5.85.99,2.46,1.49,5.26,1.49,8.38v28.73h-10.39v-25.93c0-1.87-.3-3.54-.91-5.01-.61-1.47-1.6-2.68-2.98-3.65-1.38-.97-3.22-1.45-5.53-1.45-2.18,0-4.07.39-5.67,1.17-1.6.78-2.84,1.92-3.7,3.42-.87,1.5-1.3,3.31-1.3,5.43v26.02h-10.39v-43.99h10.39v15.07l-1.44-3Z"/>
        <path class="cls-2" d="m687.5,132.39h29.81v8.52h-29.81v-8.52Zm6.06,30.61v-42.31h10.39v40.62c0,2.12.48,3.73,1.44,4.82.96,1.09,2.56,1.64,4.81,1.64,1.15,0,2.26-.11,3.32-.33,1.06-.22,2.1-.45,3.12-.7l1.25,9.26c-1.09.31-2.12.59-3.08.84-.96.25-2,.43-3.13.56-1.12.12-2.42.19-3.89.19-3.33,0-6.04-.65-8.13-1.96-2.08-1.31-3.62-3.06-4.62-5.24-1-2.18-1.49-4.65-1.49-7.39Z"/>
        <path class="cls-2" d="m742.21,177.6c-4.81,0-8.94-.93-12.41-2.81-3.46-1.87-6.12-4.57-7.98-8.1-1.86-3.52-2.79-7.66-2.79-12.4s.98-9.02,2.93-12.45c1.96-3.43,4.66-6.05,8.13-7.86,3.46-1.81,7.5-2.71,12.12-2.71s8.65.9,12.12,2.71c3.46,1.81,6.15,4.43,8.08,7.86,1.92,3.43,2.89,7.58,2.89,12.45,0,7.24-2.05,12.93-6.15,17.08-4.1,4.15-9.75,6.22-16.93,6.22Zm0-37.16c-4.04,0-7.18,1.23-9.42,3.7-2.24,2.46-3.37,5.82-3.37,10.06,0,2.81.5,5.27,1.49,7.39.99,2.12,2.44,3.78,4.33,4.96,1.89,1.19,4.18,1.78,6.88,1.78,4.1,0,7.27-1.29,9.52-3.88,2.24-2.59,3.37-6,3.37-10.25,0-2.81-.51-5.24-1.54-7.3-1.03-2.06-2.5-3.65-4.42-4.77-1.92-1.12-4.2-1.68-6.83-1.68Zm-2.5-19.75h4.04l-10.58,8.05-3.08-3.46,10.29-9.92h2.69l10.29,9.92-3.08,3.46-10.58-8.05Z"/>
        <path class="cls-2" d="m779.24,144.46h2.69l-1.64,3.93c.32-4.05,1.19-7.35,2.6-9.87,1.41-2.53,3.25-4.37,5.53-5.52,2.27-1.15,4.86-1.73,7.74-1.73,3.59,0,6.49.72,8.7,2.15,2.21,1.44,3.81,3.39,4.81,5.85.99,2.46,1.49,5.26,1.49,8.38v28.73h-10.39v-25.93c0-1.87-.3-3.54-.91-5.01-.61-1.47-1.6-2.68-2.98-3.65-1.38-.97-3.22-1.45-5.53-1.45-2.18,0-4.07.39-5.67,1.17-1.6.78-2.84,1.92-3.7,3.42s-1.3,3.31-1.3,5.43v26.02h-10.39v-43.99h10.39v15.07l-1.44-3Z"/>
        <path class="cls-2" d="m829.43,126.5h-11.25v-7.49h11.25v7.49Zm-.38,49.89h-10.39v-43.99h10.39v43.99Z"/>
        <path class="cls-2" d="m857.9,177.6c-4.81,0-8.94-.93-12.41-2.81-3.46-1.87-6.12-4.57-7.98-8.1-1.86-3.52-2.79-7.66-2.79-12.4s.98-9.02,2.93-12.45c1.96-3.43,4.66-6.05,8.13-7.86,3.46-1.81,7.5-2.71,12.12-2.71s8.65.9,12.12,2.71c3.46,1.81,6.15,4.43,8.08,7.86,1.92,3.43,2.89,7.58,2.89,12.45,0,7.24-2.05,12.93-6.15,17.08-4.1,4.15-9.75,6.22-16.93,6.22Zm0-37.16c-4.04,0-7.18,1.23-9.42,3.7-2.24,2.46-3.37,5.82-3.37,10.06,0,2.81.5,5.27,1.49,7.39.99,2.12,2.44,3.78,4.33,4.96,1.89,1.19,4.18,1.78,6.88,1.78,4.1,0,7.27-1.29,9.52-3.88,2.24-2.59,3.37-6,3.37-10.25,0-2.81-.51-5.24-1.54-7.3-1.03-2.06-2.5-3.65-4.42-4.77-1.92-1.12-4.2-1.68-6.83-1.68Z"/>
        <path class="cls-2" d="m378.8,246.33c.58-1.87,1.3-4.07,2.16-6.6.87-2.53,1.75-5.1,2.64-7.72.9-2.62,1.75-5.1,2.55-7.44.8-2.34,1.52-4.32,2.16-5.94l9.71-24.9h15.87v56.16h-10.87v-25.93c0-2.99.05-6.19.14-9.59.1-3.4.19-6.69.29-9.87.1-3.18.14-5.9.14-8.14l3.56,6.18h-6.63l4.71-6.18c-.77,2.43-1.7,5.41-2.79,8.94-1.09,3.53-2.28,7.21-3.56,11.04-1.28,3.84-2.66,7.57-4.14,11.18l-8.75,22.37h-10.1l-8.46-22.74c-1.48-3.87-2.85-7.67-4.14-11.42-1.28-3.74-2.45-7.27-3.51-10.58-1.06-3.31-2-6.33-2.84-9.08l3.94,6.46h-5.19l2.98-6.27c.13,2.37.21,5.13.24,8.28.03,3.15.05,6.41.05,9.78v35.57h-10.39v-56.16h17.12l9.81,25.27c.58,1.44,1.27,3.29,2.07,5.57.8,2.28,1.62,4.76,2.45,7.44.83,2.68,1.62,5.27,2.36,7.77.74,2.5,1.3,4.71,1.68,6.65l-5.48-8.7h6.25l-6.06,8.61Z"/>
        <path class="cls-2" d="m434,250.83c-2.76,0-5.21-.47-7.36-1.4-2.15-.94-3.81-2.32-5-4.16-1.19-1.84-1.78-4.17-1.78-6.97,0-4.18,1.3-7.54,3.9-10.06,2.6-2.53,6.72-3.79,12.36-3.79h14.91l.1,7.49h-13.46c-2.44,0-4.34.41-5.72,1.22-1.38.81-2.07,2-2.07,3.56,0,1,.27,1.95.82,2.85.54.9,1.38,1.64,2.5,2.2,1.12.56,2.65.84,4.57.84,2.44,0,4.54-.4,6.3-1.22,1.76-.81,3.11-1.92,4.04-3.32.93-1.4,1.39-3.01,1.39-4.82v-10.58c0-3.06-.66-5.35-1.97-6.88-1.31-1.53-3.54-2.29-6.68-2.29-2.82,0-5.05.65-6.68,1.97-1.64,1.31-2.68,3.59-3.12,6.83l-9.81-1.4c.45-3.31,1.43-6.16,2.93-8.56,1.51-2.4,3.65-4.24,6.44-5.52,2.79-1.28,6.36-1.92,10.72-1.92s7.82.69,10.58,2.06c2.76,1.37,4.78,3.39,6.06,6.04,1.28,2.65,1.92,5.85,1.92,9.59v27.33h-10.39v-13.38l1.92,2.34h-2.6l1.35-6.55c-.07,3.99-.79,7.38-2.16,10.16-1.38,2.78-3.24,4.87-5.58,6.27-2.34,1.4-5.14,2.11-8.41,2.11Z"/>
        <path class="cls-2" d="m476.12,220.41l1.92-.1-1.06,3.46c.45-3.62,1.04-6.6,1.78-8.94.74-2.34,1.64-4.15,2.69-5.43,1.06-1.28,2.34-2.18,3.85-2.71,1.51-.53,3.19-.8,5.05-.8h2.6v11.33h-4.42c-2.69,0-4.87.33-6.54.98-1.67.65-2.87,1.73-3.61,3.23-.74,1.5-1.11,3.56-1.11,6.18v22.27h-10.39v-43.99h10.39v17.22l-1.15-2.71Z"/>
        <path class="cls-2" d="m494.2,205.9h29.81v8.52h-29.81v-8.52Zm6.06,30.61v-42.31h10.39v40.62c0,2.12.48,3.73,1.44,4.82.96,1.09,2.56,1.64,4.81,1.64,1.15,0,2.26-.11,3.32-.33,1.06-.22,2.1-.45,3.12-.7l1.25,9.26c-1.09.31-2.12.59-3.08.84-.96.25-2,.43-3.13.56-1.12.12-2.42.19-3.89.19-3.33,0-6.04-.65-8.13-1.96-2.08-1.31-3.62-3.06-4.62-5.24-1-2.18-1.49-4.65-1.49-7.39Z"/>
        <path class="cls-2" d="m540.36,200h-11.25v-7.49h11.25v7.49Zm-.38,49.89h-10.39v-43.99h10.39v43.99Z"/>
        <path class="cls-2" d="m613.83,251.11c-4.81,0-8.65-.65-11.54-1.96-2.89-1.31-5.05-3.14-6.49-5.48-1.44-2.34-2.45-4.91-3.03-7.72l9.71-1.87c.51,1.87,1.19,3.5,2.02,4.87.83,1.37,2.02,2.47,3.56,3.28,1.54.81,3.53,1.22,5.96,1.22,2.76,0,4.81-.51,6.15-1.54,1.35-1.03,2.05-2.39,2.12-4.07,0-1.06-.32-1.96-.96-2.71-.64-.75-1.78-1.43-3.41-2.06-1.64-.62-3.96-1.18-6.97-1.68-4.04-.81-7.26-1.81-9.67-2.99-2.4-1.18-4.15-2.65-5.24-4.4-1.09-1.75-1.64-3.77-1.64-6.08,0-3.93,1.51-7.1,4.52-9.5,3.01-2.4,7.47-3.6,13.37-3.6,4.1,0,7.45.55,10.05,1.64,2.6,1.09,4.62,2.64,6.06,4.63,1.44,2,2.48,4.43,3.12,7.3l-9.91,2.25c-.64-2.87-1.7-4.98-3.17-6.32-1.48-1.34-3.53-2.01-6.15-2.01s-4.41.45-5.72,1.36c-1.32.91-1.97,2.17-1.97,3.79,0,1.06.29,2,.87,2.81.58.81,1.67,1.51,3.27,2.11,1.6.59,3.91,1.17,6.92,1.73,4.17.75,7.5,1.75,10,3,2.5,1.25,4.26,2.75,5.29,4.49,1.03,1.75,1.54,3.74,1.54,5.99,0,2.68-.67,5.05-2.02,7.11-1.35,2.06-3.4,3.65-6.15,4.77-2.76,1.12-6.25,1.68-10.48,1.68Z"/>
        <path class="cls-2" d="m663.36,249.89h-10.87v-56.16h10.87v56.16Zm-6.73-21.15v-10.01h32.79v10.01h-32.79Zm.96-35.01h34.62v10.01h-34.62v-10.01Z"/>
        <path class="cls-2" d="m709.9,200h-11.25v-7.49h11.25v7.49Zm-.38,49.89h-10.39v-43.99h10.39v43.99Z"/>
        <path class="cls-2" d="m727.79,192.52v57.37h-10.39v-57.37h10.39Z"/>
        <path class="cls-2" d="m743.94,217.97h2.79l-1.83,4.02c.39-4.12,1.28-7.45,2.69-10.01,1.41-2.56,3.27-4.4,5.58-5.52,2.31-1.12,4.87-1.68,7.69-1.68,3.59,0,6.49.72,8.7,2.15,2.21,1.44,3.81,3.39,4.81,5.85.99,2.46,1.49,5.26,1.49,8.38v28.73h-10.39v-25.93c0-1.87-.3-3.54-.91-5.01-.61-1.47-1.59-2.68-2.93-3.65-1.35-.97-3.21-1.45-5.58-1.45-2.24,0-4.15.39-5.72,1.17-1.57.78-2.79,1.92-3.65,3.42-.87,1.5-1.3,3.31-1.3,5.43v26.02h-10.39v-57.37h10.39v28.45l-1.44-3Z"/>
        <path class="cls-2" d="m803.66,251.11c-4.81,0-8.94-.93-12.41-2.81-3.46-1.87-6.12-4.57-7.98-8.1-1.86-3.52-2.79-7.66-2.79-12.4s.98-9.02,2.93-12.45c1.96-3.43,4.66-6.05,8.13-7.86,3.46-1.81,7.5-2.71,12.12-2.71s8.65.9,12.12,2.71c3.46,1.81,6.15,4.43,8.08,7.86,1.92,3.43,2.89,7.58,2.89,12.45,0,7.24-2.05,12.93-6.15,17.08-4.1,4.15-9.75,6.22-16.93,6.22Zm0-37.16c-4.04,0-7.18,1.23-9.42,3.7-2.24,2.46-3.37,5.82-3.37,10.06,0,2.81.5,5.27,1.49,7.39.99,2.12,2.44,3.78,4.33,4.96,1.89,1.19,4.18,1.78,6.88,1.78,4.1,0,7.27-1.29,9.52-3.88,2.24-2.59,3.37-6,3.37-10.25,0-2.81-.51-5.24-1.54-7.3-1.03-2.06-2.5-3.65-4.42-4.77-1.92-1.12-4.2-1.68-6.83-1.68Z"/>
      </g>
      <g>
        <path class="cls-1" d="m259.04,251.32v29.56c-2.91,4.46-5.99,8.43-9.22,11.82-3.05.24-6.08.44-9.09.61v-45.76l18.31,3.76Z"/>
        <path class="cls-1" d="m228.95,247.18v46.64c-6.23.18-12.34.21-18.3.12v-46.19l18.3-.57Z"/>
        <path class="cls-1" d="m138.41,265.91v19.11c-5.62-1.49-10.7-3.11-15.19-4.83v-12.76l15.19-1.51Z"/>
        <path class="cls-1" d="m175.52,261.64v30.08c-5.28-.59-10.35-1.29-15.2-2.09v-26.41l15.2-1.57Z"/>
        <path class="cls-1" d="m287.73,161.13C287.73,37.46,225.12,0,225.12,0,203.01,57.86,147.41,155.23,0,182.98c0,0,22.7,38.34,72.58,71.09l107.74-14.91v53.07c5.07.49,10.3.9,15.68,1.18v-44.14l-8.82,1.42.05-10.92,18.08-3.51,31.3-.38,23.01,5.18,2.45,1.56c0,3.09,0,21.56.02,33.28,1.6-2.77,3.15-5.7,4.63-8.78,0-9.5-.02-25.75-.02-25.75l9.31,1.9c.7-2.24,1.37-4.53,2.01-6.85l-7.83-2.16,1.94-9.11-3.97-4.25-.07-2.16,13.31,3.91c.44-2.09.87-4.2,1.28-6.34l-15.01-5.25-.15-8.51,16.55,5.76c2.36-14.92,3.65-30.82,3.65-47.17Zm-82.32-77.69l31.53-1.31,23.29,14.33.06,12.06-4.34-3.68v-7.86l-12.34-7.1v8.73l-3.83-1.97-9.13.19v-8.76s-18.77.86-18.77.86l-.02,7.92-10.78.52-2.59,2.41v-7.24l-5.56,3.85.04,7.26-3.37,2.87-.05-10.44,15.86-12.65Zm-26.27,33.93l23.38-15.01,36.12-.7,28.73,15.24-.07,11.79-2.53,2.87v-5.81l-26.45-13.49-36.02.76-19.86,12.04-3.29-7.69Zm12.95,23.83c-1.02,0-2.07.44-3.11,1.31-.56.46-1.09,1.03-1.6,1.67l-.04-9.4v-.51s-.02,0-.02,0l-.05-6.34,17.31-9.48c.72-.02,2.54-.09,5.08-.19,8.19-.3,23.44-.87,26.1-.87h.07c2.84,1.45,21.72,10.32,24.45,11.59l2.05,5.81v3.96l.45,57,.03,4.87.14,17.42-24.99-7.01-.18-.05h-.19l-35.04.82h-.2s-.18.07-.18.07l-14.52,5.18-.05-11.4,7.64-3.29.75-.32v-54.83c0-4.44-2.02-6.02-3.91-6.02Zm76.9,85.38l-1.68,6.88-4.34,5.71-1.97-2.34-23.86-6-.16-.04h-.16s-31.89.39-31.89.39h-.16l-.15.04-17.61,4.55-5.95-12.44,22.16-6.22,34.25-.81,26.17,6.74,5.35,3.55Zm-189.55,31.84c2.37,1.46,4.79,2.9,7.27,4.32l88.63-10.33v-6.07l-95.9,12.08Z"/>
        <path class="cls-1" d="m257.48,202.26l1.56.43v-52.15c0-4.58-3.77-10.13-8.58-12.65-1.47-.77-2.9-1.16-4.24-1.16-3.28,0-5.49,2.43-5.49,6.03v54.95l.91.25,15.83,4.3Z"/>
        <path class="cls-1" d="m227.78,198.22l1.17-.06v-55.18c0-5.04-4.11-9.15-9.15-9.15s-9.15,4.66-9.15,9.97v55.31l1.29-.07,15.84-.82Z"/>
      </g>
    </g>
  </g>
</svg>