<?xml version="1.0" standalone="no"?>
<!DOCTYPE svg PUBLIC "-//W3C//DTD SVG 1.1//EN" "http://www.w3.org/Graphics/SVG/1.1/DTD/svg11.dtd">
<svg xmlns="http://www.w3.org/2000/svg" id="Camada_2" data-name="Camada 2" viewBox="0 0 1080 368.63" width="1080" height="368.6300048828125">
  <defs>
    <style>
      .cls-1 {
        fill: #b73d00;
      }

      .cls-1, .cls-2 {
        stroke-width: 0px;
      }

      .cls-2 {
        fill: #000002;
      }
    </style>
  </defs>
  <g id="Camada_1-2" data-name="Camada 1">
    <g>
      <g>
        <path class="cls-1" d="m317.9,308.42v36.28c-3.57,5.47-7.35,10.35-11.31,14.51-3.75.29-7.46.54-11.16.75v-56.16l22.47,4.61Z"/>
        <path class="cls-1" d="m280.97,303.34v57.24c-7.64.22-15.15.26-22.46.14v-56.68l22.46-.7Z"/>
        <path class="cls-1" d="m169.86,326.34v23.45c-6.9-1.83-13.13-3.82-18.64-5.93v-15.66l18.64-1.86Z"/>
        <path class="cls-1" d="m215.41,321.1v36.91c-6.48-.73-12.7-1.59-18.65-2.57v-32.42l18.65-1.93Z"/>
        <path class="cls-1" d="m353.12,197.74C353.12,45.98,276.28,0,276.28,0,249.15,71.01,180.91,190.5,0,224.56c0,0,27.86,47.05,89.08,87.24l132.23-18.3v65.13c6.22.61,12.64,1.1,19.25,1.45v-54.17l-10.83,1.74.06-13.4,22.19-4.31,38.41-.46,28.24,6.36,3.01,1.91c0,3.8.01,26.46.03,40.84,1.97-3.4,3.87-7,5.69-10.77-.01-11.65-.03-31.6-.03-31.6l11.42,2.33c.86-2.75,1.68-5.56,2.46-8.41l-9.6-2.65,2.38-11.18-4.87-5.22-.09-2.66,16.33,4.8c.55-2.57,1.07-5.16,1.57-7.78l-18.42-6.44-.18-10.44,20.31,7.07c2.9-18.31,4.48-37.82,4.48-57.89Zm-101.02-95.34l38.7-1.61,28.58,17.59.07,14.8-5.32-4.51v-9.64l-15.15-8.71v10.71l-4.7-2.42-11.2.23v-10.75s-23.03,1.06-23.03,1.06l-.02,9.72-13.23.64-3.18,2.96v-8.89l-6.83,4.73.05,8.91-4.14,3.52-.06-12.81,19.46-15.52Zm-32.23,41.65l28.69-18.42,44.33-.86,35.26,18.7-.09,14.47-3.11,3.52v-7.13l-32.47-16.56-44.2.93-24.38,14.77-4.04-9.43Zm15.89,29.24c-1.25,0-2.53.54-3.82,1.61-.69.57-1.34,1.26-1.97,2.05l-.05-11.53v-.63s-.02-.01-.02-.01l-.06-7.78,21.25-11.63c.89-.03,3.12-.11,6.23-.23,10.05-.37,28.77-1.07,32.03-1.07h.09c3.48,1.78,26.66,12.66,30,14.23l2.51,7.13v4.86l.56,69.95.04,5.98.17,21.38-30.67-8.6-.22-.06h-.23l-43,1.01h-.24s-.22.09-.22.09l-17.82,6.36-.06-13.99,9.38-4.04.92-.39v-67.28c0-5.45-2.48-7.39-4.8-7.39Zm94.38,104.78l-2.06,8.44-5.32,7.01-2.42-2.87-29.29-7.36-.19-.05h-.19s-39.14.47-39.14.47h-.19l-.18.05-21.61,5.58-7.3-15.27,27.19-7.63,42.03-1,32.11,8.27,6.56,4.35Zm-232.62,39.08c2.91,1.79,5.88,3.55,8.93,5.3l108.77-12.67v-7.45l-117.7,14.82Z"/>
        <path class="cls-1" d="m315.99,248.23l1.92.53v-64c0-5.61-4.63-12.43-10.53-15.52-1.81-.94-3.55-1.42-5.2-1.42-4.03,0-6.74,2.98-6.74,7.4v67.44l1.12.3,19.43,5.28Z"/>
        <path class="cls-1" d="m279.54,243.26l1.43-.07v-67.72c0-6.19-5.04-11.23-11.23-11.23s-11.23,5.72-11.23,12.24v67.88l1.59-.09,19.44-1.01Z"/>
      </g>
      <g>
        <g>
          <g>
            <path class="cls-2" d="m460.28,127.51c-5.35,0-10.19-.88-14.52-2.64-4.33-1.76-8.03-4.27-11.09-7.52-3.07-3.25-5.41-7.06-7.02-11.43-1.61-4.36-2.42-9.11-2.42-14.24,0-6.81,1.46-12.92,4.37-18.32,2.91-5.4,7-9.63,12.27-12.69,5.27-3.06,11.45-4.59,18.53-4.59,6.21,0,11.66,1.19,16.35,3.56,4.68,2.37,8.5,5.71,11.45,9.99,2.95,4.29,4.82,9.23,5.61,14.82l-8.14,1.61c-1.1-6.66-3.82-12.04-8.14-16.14-4.33-4.1-10.11-6.14-17.35-6.14-5.59,0-10.35,1.22-14.28,3.67-3.93,2.45-6.94,5.76-9.03,9.94-2.09,4.17-3.13,8.94-3.13,14.3s1.02,10.28,3.07,14.53c2.04,4.25,5.03,7.58,8.97,9.99,3.93,2.41,8.77,3.62,14.52,3.62,4.88,0,9.09-.98,12.63-2.93,3.54-1.95,6.37-4.65,8.5-8.1,2.12-3.45,3.58-7.43,4.37-11.95l8.14,1.38c-.79,5.74-2.68,10.8-5.67,15.16-2.99,4.36-6.83,7.81-11.51,10.34-4.68,2.53-10.17,3.79-16.46,3.79Z"/>
            <path class="cls-2" d="m517.28,127.4c-3.7,0-6.89-.54-9.56-1.61-2.68-1.07-4.74-2.74-6.2-5-1.46-2.26-2.18-5-2.18-8.21,0-4.52,1.57-8.31,4.72-11.37,3.15-3.06,7.91-4.59,14.28-4.59h20.77l.12,6.55h-19.95c-3.86,0-6.81.73-8.85,2.18-2.05,1.46-3.07,3.6-3.07,6.43,0,1.46.37,2.85,1.12,4.19.75,1.34,1.99,2.43,3.72,3.27,1.73.84,4.05,1.26,6.96,1.26,3.7,0,6.92-.59,9.68-1.78,2.75-1.19,4.88-2.83,6.37-4.94,1.49-2.11,2.24-4.5,2.24-7.18v-13.44c0-4.75-1-8.35-3.01-10.8-2.01-2.45-5.45-3.67-10.33-3.67-4.48,0-7.95,1.05-10.39,3.16-2.44,2.11-4.05,5.65-4.84,10.62l-7.79-1.26c.63-4.36,1.91-7.98,3.84-10.85,1.93-2.87,4.5-5.03,7.73-6.49,3.23-1.45,7.08-2.18,11.57-2.18,5.03,0,9.11.8,12.21,2.41,3.11,1.61,5.39,4.02,6.85,7.24,1.45,3.22,2.18,7.08,2.18,11.6v33.31h-8.03v-15.51l2.01,1.72h-2.71l1.3-6.89c.08,4.9-.83,8.96-2.71,12.18-1.89,3.22-4.39,5.63-7.49,7.24-3.11,1.61-6.63,2.41-10.56,2.41Zm-4.96-59.61l-1.77-4.94,27.85-10.22,2.12,5.63-28.21,9.53Z"/>
            <path class="cls-2" d="m550.21,72.84h35.64v7.01h-35.64v-7.01Zm8.97,37.9v-53.18h8.03v52.38c0,3.22.73,5.69,2.18,7.41,1.45,1.72,3.79,2.58,7.02,2.58,1.65,0,3.15-.11,4.48-.34,1.34-.23,2.79-.57,4.37-1.03l1.18,7.24c-1.18.31-2.36.61-3.54.92-1.18.3-2.4.52-3.66.63-1.26.11-2.64.17-4.13.17-3.7,0-6.73-.73-9.09-2.18-2.36-1.45-4.09-3.45-5.19-5.97-1.1-2.53-1.65-5.4-1.65-8.62Z"/>
            <path class="cls-2" d="m616.42,127.51c-5.67,0-10.58-1.11-14.75-3.33-4.17-2.22-7.4-5.42-9.68-9.59-2.28-4.17-3.42-9.13-3.42-14.87s1.18-10.95,3.54-15.16c2.36-4.21,5.62-7.43,9.79-9.65,4.17-2.22,8.93-3.33,14.28-3.33s9.99,1.05,13.69,3.16c3.7,2.11,6.51,5,8.44,8.67,1.93,3.68,2.89,8,2.89,12.98,0,.69.02,1.51.06,2.47.04.96-.02,2.01-.18,3.16h-47.21v-6.43h42.01l-2.24,2.53c.08-6.2-1.32-11.03-4.19-14.47-2.87-3.45-7.38-5.17-13.51-5.17s-10.68,1.78-14.1,5.34c-3.42,3.56-5.13,8.83-5.13,15.79,0,6.51,1.73,11.6,5.19,15.28,3.46,3.68,8.3,5.51,14.52,5.51,3.62,0,6.57-.56,8.85-1.67,2.28-1.11,4.09-2.6,5.43-4.48,1.34-1.88,2.32-3.96,2.95-6.26l7.32,2.07c-.94,3.6-2.48,6.7-4.6,9.3-2.12,2.6-4.84,4.61-8.14,6.03-3.3,1.41-7.24,2.12-11.8,2.12Z"/>
            <path class="cls-2" d="m645.69,99.6c0-8.65,2.06-15.51,6.2-20.56,4.13-5.05,9.81-7.54,17.05-7.47,5.19-.08,9.4.94,12.63,3.04,3.22,2.11,5.62,5,7.2,8.67,1.57,3.68,2.44,7.89,2.6,12.63l-.71,3.33c0-6.2-1.71-11.2-5.13-14.99-3.42-3.79-8.01-5.69-13.75-5.69s-10.44,1.86-13.4,5.57c-2.95,3.71-4.43,8.9-4.43,15.56s1.46,11.66,4.37,15.22c2.91,3.56,7.4,5.34,13.45,5.34,3.93,0,7.28-.78,10.03-2.35,2.75-1.57,4.92-3.89,6.49-6.95,1.57-3.06,2.36-6.74,2.36-11.03l.71,3.22c-.16,3.6-.71,6.87-1.65,9.82-.94,2.95-2.28,5.51-4.01,7.7-1.73,2.18-3.95,3.87-6.67,5.05-2.71,1.19-5.96,1.78-9.74,1.78-7.71,0-13.57-2.53-17.59-7.58-4.01-5.05-6.02-11.83-6.02-20.33Zm47.09-7.69h-2.6l-.47-2.64h3.07v2.64Zm-.59,18.26h-2.36l.24-2.76h2.12v2.76Zm-1.53,16.08V55.84h8.14v70.41h-8.14Z"/>
            <path class="cls-2" d="m717.21,88.35h1.89l-1.06,4.02c.31-3.52.92-6.51,1.83-8.96.9-2.45,2.06-4.46,3.48-6.03,1.42-1.57,3.13-2.72,5.13-3.45,2.01-.73,4.31-1.09,6.9-1.09h3.66v8.62h-4.48c-3.62,0-6.65.52-9.09,1.55-2.44,1.03-4.23,2.66-5.37,4.88-1.14,2.22-1.71,5.25-1.71,9.07v29.29h-8.02v-53.41h8.02v18.26l-1.18-2.76Z"/>
            <path class="cls-2" d="m759.81,127.4c-3.7,0-6.89-.54-9.56-1.61-2.68-1.07-4.74-2.74-6.2-5-1.46-2.26-2.18-5-2.18-8.21,0-4.52,1.57-8.31,4.72-11.37,3.15-3.06,7.91-4.59,14.28-4.59h20.77l.12,6.55h-19.95c-3.86,0-6.81.73-8.85,2.18-2.05,1.46-3.07,3.6-3.07,6.43,0,1.46.37,2.85,1.12,4.19.75,1.34,1.99,2.43,3.72,3.27,1.73.84,4.05,1.26,6.96,1.26,3.7,0,6.92-.59,9.68-1.78,2.75-1.19,4.88-2.83,6.37-4.94,1.49-2.11,2.24-4.5,2.24-7.18v-13.44c0-4.75-1-8.35-3.01-10.8-2.01-2.45-5.45-3.67-10.33-3.67-4.48,0-7.95,1.05-10.39,3.16-2.44,2.11-4.05,5.65-4.84,10.62l-7.79-1.26c.63-4.36,1.91-7.98,3.84-10.85,1.93-2.87,4.5-5.03,7.73-6.49,3.23-1.45,7.08-2.18,11.57-2.18,5.03,0,9.11.8,12.21,2.41,3.11,1.61,5.39,4.02,6.85,7.24,1.45,3.22,2.18,7.08,2.18,11.6v33.31h-8.03v-15.51l2.01,1.72h-2.71l1.3-6.89c.08,4.9-.83,8.96-2.71,12.18-1.89,3.22-4.39,5.63-7.49,7.24-3.11,1.61-6.63,2.41-10.56,2.41Z"/>
          </g>
          <g>
            <path class="cls-2" d="m682.16,267.5h3.3l-2.01,4.82c.39-4.98,1.46-9.02,3.19-12.12,1.73-3.1,3.99-5.36,6.79-6.78,2.79-1.41,5.96-2.12,9.5-2.12,4.4,0,7.97.88,10.68,2.64,2.71,1.76,4.68,4.16,5.9,7.18,1.22,3.02,1.83,6.45,1.83,10.28v35.26h-12.75v-31.82c0-2.3-.37-4.35-1.12-6.14-.75-1.8-1.97-3.29-3.66-4.48-1.69-1.19-3.95-1.78-6.79-1.78-2.68,0-5,.48-6.96,1.44-1.97.96-3.48,2.35-4.54,4.19-1.06,1.84-1.59,4.06-1.59,6.66v31.93h-12.75v-53.99h12.75v18.49l-1.77-3.68Z"/>
            <path class="cls-2" d="m433.97,159.26l6.14-8.5v65.7h-13.45v-68.92h30.8c5.59,0,10.19.79,13.81,2.36,3.62,1.57,6.31,3.85,8.08,6.83,1.77,2.99,2.66,6.59,2.66,10.8,0,4.67-1.02,8.6-3.07,11.77-2.05,3.18-5,5.61-8.85,7.29-3.86,1.69-8.46,2.53-13.81,2.53h-21.95v-11.6h21.83c4.01,0,7.12-.84,9.32-2.53,2.2-1.69,3.3-4.06,3.3-7.12,0-1.76-.41-3.31-1.24-4.65-.83-1.34-2.09-2.33-3.78-2.99-1.69-.65-4.03-.98-7.02-.98h-22.78Zm29.39,25.5l23.25,31.47v.23h-16.17l-20.06-29.4,12.98-2.3Z"/>
            <path class="cls-2" d="m513.28,217.84c-5.67,0-10.62-1.05-14.87-3.16-4.25-2.1-7.55-5.22-9.91-9.36-2.36-4.14-3.54-9.19-3.54-15.16s1.14-11.37,3.42-15.74c2.28-4.37,5.57-7.69,9.85-9.99,4.29-2.3,9.3-3.45,15.05-3.45s10.36,1.07,14.1,3.22c3.74,2.15,6.53,5.13,8.38,8.96,1.85,3.83,2.77,8.19,2.77,13.09,0,1.15.02,2.28.06,3.39.04,1.11-.06,2.36-.3,3.73h-44.49v-9.07h36.23l-3.07,3.67c.16-5.36-.9-9.46-3.19-12.29-2.28-2.83-5.9-4.25-10.86-4.25s-8.77,1.47-11.45,4.42c-2.68,2.95-4.01,7.49-4.01,13.61s1.36,10.2,4.07,13.15c2.71,2.95,6.67,4.42,11.86,4.42,2.91,0,5.29-.42,7.14-1.26,1.85-.84,3.26-2.01,4.25-3.5.98-1.49,1.79-3.12,2.42-4.88l11.09,2.99c-1.02,3.52-2.58,6.59-4.66,9.19-2.09,2.6-4.76,4.63-8.02,6.09-3.27,1.45-7.38,2.18-12.33,2.18Z"/>
            <path class="cls-2" d="m558.96,155.24h-13.81v-9.19h13.81v9.19Zm-.47,61.22h-12.75v-53.99h12.75v53.99Z"/>
            <path class="cls-2" d="m564.38,162.47h36.58v10.45h-36.58v-10.45Zm7.43,37.56v-51.92h12.75v49.85c0,2.6.59,4.58,1.77,5.91,1.18,1.34,3.15,2.01,5.9,2.01,1.42,0,2.77-.13,4.07-.4,1.3-.27,2.58-.55,3.83-.86l1.54,11.37c-1.34.38-2.6.73-3.78,1.03-1.18.3-2.46.53-3.84.69-1.38.15-2.97.23-4.78.23-4.09,0-7.42-.8-9.97-2.41-2.56-1.61-4.45-3.75-5.66-6.43-1.22-2.68-1.83-5.7-1.83-9.07Z"/>
            <path class="cls-2" d="m631.54,217.95c-5.9,0-10.98-1.15-15.23-3.45-4.25-2.3-7.51-5.61-9.8-9.94-2.28-4.32-3.42-9.4-3.42-15.22s1.2-11.07,3.6-15.28c2.4-4.21,5.72-7.42,9.97-9.65,4.25-2.22,9.21-3.33,14.87-3.33s10.62,1.11,14.87,3.33c4.25,2.22,7.55,5.44,9.91,9.65,2.36,4.21,3.54,9.3,3.54,15.28,0,8.88-2.52,15.87-7.55,20.96-5.04,5.09-11.96,7.64-20.77,7.64Zm0-45.6c-4.96,0-8.81,1.51-11.57,4.54-2.76,3.02-4.13,7.14-4.13,12.35,0,3.45.61,6.47,1.83,9.07,1.22,2.61,2.99,4.63,5.31,6.09,2.32,1.46,5.13,2.18,8.44,2.18,5.03,0,8.93-1.59,11.68-4.77,2.75-3.18,4.13-7.37,4.13-12.58,0-3.45-.63-6.43-1.89-8.96-1.26-2.53-3.07-4.48-5.43-5.86s-5.15-2.07-8.38-2.07Z"/>
            <path class="cls-2" d="m677.33,180.28l2.36-.12-1.3,4.25c.55-4.44,1.28-8.1,2.18-10.97.9-2.87,2.01-5.09,3.31-6.66,1.3-1.57,2.87-2.68,4.72-3.33,1.85-.65,3.91-.98,6.2-.98h3.19v13.9h-5.43c-3.31,0-5.98.4-8.03,1.21-2.05.8-3.52,2.12-4.43,3.96-.9,1.84-1.36,4.37-1.36,7.58v27.34h-12.75v-53.99h12.75v21.14l-1.42-3.33Z"/>
            <path class="cls-2" d="m754.98,160.41h-9.56l7.55-9.99c-.87,2.83-1.89,5.95-3.07,9.36-1.18,3.41-2.44,6.89-3.78,10.45-1.34,3.56-2.64,7.03-3.9,10.39l-14.04,35.84h-14.04l28.44-68.92h15.34l28.33,68.92h-14.52l-13.69-35.84c-1.26-3.37-2.6-6.85-4.01-10.45-1.42-3.6-2.7-7.08-3.84-10.45-1.14-3.37-2.11-6.43-2.89-9.19l7.67,9.88Zm13.69,38.94h-37.65v-10.68h37.65v10.68Z"/>
            <path class="cls-2" d="m799.71,177.29h3.3l-2.01,4.82c.39-4.98,1.46-9.02,3.19-12.12,1.73-3.1,3.99-5.36,6.79-6.78,2.79-1.41,5.96-2.12,9.5-2.12,4.4,0,7.97.88,10.68,2.64,2.71,1.76,4.68,4.16,5.9,7.18,1.22,3.02,1.83,6.45,1.83,10.28v35.26h-12.75v-31.82c0-2.3-.37-4.35-1.12-6.14-.75-1.8-1.97-3.29-3.66-4.48-1.69-1.19-3.95-1.78-6.79-1.78-2.68,0-5,.48-6.96,1.44-1.97.96-3.48,2.35-4.54,4.19s-1.59,4.06-1.59,6.66v31.93h-12.75v-53.99h12.75v18.49l-1.77-3.68Z"/>
            <path class="cls-2" d="m842.55,162.47h36.58v10.45h-36.58v-10.45Zm7.43,37.56v-51.92h12.75v49.85c0,2.6.59,4.58,1.77,5.91,1.18,1.34,3.15,2.01,5.9,2.01,1.42,0,2.77-.13,4.07-.4,1.3-.27,2.58-.55,3.83-.86l1.54,11.37c-1.34.38-2.6.73-3.78,1.03-1.18.3-2.46.53-3.84.69-1.38.15-2.97.23-4.78.23-4.09,0-7.42-.8-9.97-2.41-2.56-1.61-4.45-3.75-5.66-6.43-1.22-2.68-1.83-5.7-1.83-9.07Z"/>
            <path class="cls-2" d="m909.7,217.95c-5.9,0-10.98-1.15-15.23-3.45-4.25-2.3-7.51-5.61-9.8-9.94-2.28-4.32-3.42-9.4-3.42-15.22s1.2-11.07,3.6-15.28c2.4-4.21,5.72-7.42,9.97-9.65,4.25-2.22,9.21-3.33,14.87-3.33s10.62,1.11,14.87,3.33c4.25,2.22,7.55,5.44,9.91,9.65,2.36,4.21,3.54,9.3,3.54,15.28,0,8.88-2.52,15.87-7.55,20.96-5.04,5.09-11.96,7.64-20.77,7.64Zm0-45.6c-4.96,0-8.81,1.51-11.57,4.54-2.76,3.02-4.13,7.14-4.13,12.35,0,3.45.61,6.47,1.83,9.07,1.22,2.61,2.99,4.63,5.31,6.09,2.32,1.46,5.13,2.18,8.44,2.18,5.03,0,8.93-1.59,11.68-4.77,2.75-3.18,4.13-7.37,4.13-12.58,0-3.45-.63-6.43-1.89-8.96-1.26-2.53-3.07-4.48-5.43-5.86-2.36-1.38-5.15-2.07-8.38-2.07Zm-3.07-24.24h4.96l-12.98,9.88-3.78-4.25,12.63-12.18h3.3l12.63,12.18-3.78,4.25-12.98-9.88Z"/>
            <path class="cls-2" d="m955.14,177.29h3.3l-2.01,4.82c.39-4.98,1.46-9.02,3.19-12.12,1.73-3.1,3.99-5.36,6.79-6.78,2.79-1.41,5.96-2.12,9.5-2.12,4.4,0,7.97.88,10.68,2.64,2.71,1.76,4.68,4.16,5.9,7.18,1.22,3.02,1.83,6.45,1.83,10.28v35.26h-12.75v-31.82c0-2.3-.37-4.35-1.12-6.14-.75-1.8-1.97-3.29-3.66-4.48-1.69-1.19-3.95-1.78-6.79-1.78-2.68,0-5,.48-6.96,1.44-1.97.96-3.48,2.35-4.54,4.19-1.06,1.84-1.59,4.06-1.59,6.66v31.93h-12.75v-53.99h12.75v18.49l-1.77-3.68Z"/>
            <path class="cls-2" d="m1016.74,155.24h-13.81v-9.19h13.81v9.19Zm-.47,61.22h-12.75v-53.99h12.75v53.99Z"/>
            <path class="cls-2" d="m1051.68,217.95c-5.9,0-10.98-1.15-15.23-3.45-4.25-2.3-7.51-5.61-9.8-9.94-2.28-4.32-3.42-9.4-3.42-15.22s1.2-11.07,3.6-15.28c2.4-4.21,5.72-7.42,9.97-9.65,4.25-2.22,9.21-3.33,14.87-3.33s10.62,1.11,14.87,3.33c4.25,2.22,7.55,5.44,9.91,9.65,2.36,4.21,3.54,9.3,3.54,15.28,0,8.88-2.52,15.87-7.55,20.96-5.04,5.09-11.96,7.64-20.77,7.64Zm0-45.6c-4.96,0-8.81,1.51-11.57,4.54-2.76,3.02-4.13,7.14-4.13,12.35,0,3.45.61,6.47,1.83,9.07,1.22,2.61,2.99,4.63,5.31,6.09,2.32,1.46,5.13,2.18,8.44,2.18,5.03,0,8.93-1.59,11.68-4.77,2.75-3.18,4.13-7.37,4.13-12.58,0-3.45-.63-6.43-1.89-8.96-1.26-2.53-3.07-4.48-5.43-5.86-2.36-1.38-5.15-2.07-8.38-2.07Z"/>
            <path class="cls-2" d="m463.71,302.31c.71-2.3,1.59-5,2.66-8.1,1.06-3.1,2.14-6.26,3.25-9.48,1.1-3.22,2.14-6.26,3.13-9.13.98-2.87,1.87-5.3,2.66-7.29l11.92-30.55h19.47v68.92h-13.34v-31.82c0-3.67.06-7.6.18-11.77.12-4.17.24-8.21.35-12.12.12-3.91.18-7.24.18-9.99l4.37,7.58h-8.14l5.78-7.58c-.94,2.99-2.09,6.64-3.42,10.97-1.34,4.33-2.79,8.84-4.37,13.55-1.57,4.71-3.27,9.29-5.07,13.73l-10.74,27.45h-12.39l-10.39-27.91c-1.81-4.75-3.5-9.42-5.07-14.01-1.57-4.59-3.01-8.92-4.31-12.98-1.3-4.06-2.46-7.77-3.48-11.14l4.84,7.93h-6.37l3.66-7.69c.16,2.91.25,6.3.29,10.17.04,3.87.06,7.87.06,12v43.65h-12.75v-68.92h21.01l12.04,31.01c.71,1.76,1.55,4.04,2.54,6.83.98,2.8,1.99,5.84,3.01,9.13,1.02,3.29,1.99,6.47,2.89,9.53.9,3.06,1.59,5.78,2.07,8.16l-6.73-10.68h7.67l-7.44,10.57Z"/>
            <path class="cls-2" d="m531.46,307.82c-3.38,0-6.39-.57-9.03-1.72-2.64-1.15-4.68-2.85-6.14-5.11-1.46-2.26-2.18-5.11-2.18-8.56,0-5.13,1.59-9.25,4.78-12.35,3.19-3.1,8.24-4.65,15.16-4.65h18.29l.12,9.19h-16.52c-2.99,0-5.33.5-7.02,1.5-1.69,1-2.54,2.45-2.54,4.36,0,1.22.33,2.39,1,3.5.67,1.11,1.69,2.01,3.07,2.7,1.38.69,3.25,1.03,5.61,1.03,2.99,0,5.57-.5,7.73-1.49,2.16-1,3.82-2.36,4.96-4.08,1.14-1.72,1.71-3.7,1.71-5.92v-12.98c0-3.75-.81-6.57-2.42-8.44-1.61-1.88-4.35-2.81-8.2-2.81-3.46,0-6.2.8-8.2,2.41-2.01,1.61-3.29,4.4-3.83,8.38l-12.04-1.72c.55-4.06,1.75-7.56,3.6-10.51,1.85-2.95,4.48-5.21,7.91-6.78,3.42-1.57,7.81-2.36,13.16-2.36s9.6.84,12.98,2.53c3.38,1.69,5.86,4.16,7.44,7.41,1.57,3.26,2.36,7.18,2.36,11.77v33.54h-12.75v-16.42l2.36,2.87h-3.19l1.65-8.04c-.08,4.9-.97,9.06-2.66,12.46-1.69,3.41-3.97,5.97-6.85,7.69-2.87,1.72-6.31,2.58-10.33,2.58Z"/>
            <path class="cls-2" d="m583.15,270.49l2.36-.12-1.3,4.25c.55-4.44,1.28-8.1,2.18-10.97.9-2.87,2.01-5.09,3.31-6.66,1.3-1.57,2.87-2.68,4.72-3.33,1.85-.65,3.91-.98,6.2-.98h3.19v13.9h-5.43c-3.31,0-5.98.4-8.03,1.21-2.05.8-3.52,2.12-4.43,3.96-.9,1.84-1.36,4.37-1.36,7.58v27.34h-12.75v-53.99h12.75v21.14l-1.42-3.33Z"/>
            <path class="cls-2" d="m605.34,252.69h36.58v10.45h-36.58v-10.45Zm7.43,37.56v-51.92h12.75v49.85c0,2.6.59,4.58,1.77,5.91,1.18,1.34,3.15,2.01,5.9,2.01,1.42,0,2.77-.13,4.07-.4,1.3-.27,2.58-.55,3.83-.86l1.54,11.37c-1.34.38-2.6.73-3.78,1.03-1.18.3-2.46.53-3.84.69-1.38.15-2.97.23-4.78.23-4.09,0-7.42-.8-9.97-2.41-2.56-1.61-4.45-3.75-5.66-6.43-1.22-2.68-1.83-5.7-1.83-9.07Z"/>
            <path class="cls-2" d="m661.98,245.45h-13.81v-9.19h13.81v9.19Zm-.47,61.22h-12.75v-53.99h12.75v53.99Z"/>
            <path class="cls-2" d="m752.15,308.17c-5.9,0-10.62-.8-14.16-2.41-3.54-1.61-6.2-3.85-7.97-6.72-1.77-2.87-3.01-6.03-3.72-9.48l11.92-2.3c.63,2.3,1.46,4.29,2.48,5.97,1.02,1.69,2.48,3.03,4.37,4.02,1.89,1,4.33,1.49,7.32,1.49,3.38,0,5.9-.63,7.55-1.89,1.65-1.26,2.52-2.93,2.6-5,0-1.3-.39-2.41-1.18-3.33-.79-.92-2.18-1.76-4.19-2.53-2.01-.76-4.86-1.45-8.56-2.07-4.96-.99-8.91-2.22-11.86-3.67-2.95-1.45-5.1-3.25-6.43-5.4-1.34-2.14-2.01-4.63-2.01-7.47,0-4.82,1.85-8.71,5.55-11.66,3.7-2.95,9.17-4.42,16.41-4.42,5.03,0,9.15.67,12.33,2.01,3.19,1.34,5.67,3.24,7.44,5.69,1.77,2.45,3.05,5.44,3.83,8.96l-12.16,2.76c-.79-3.52-2.09-6.11-3.89-7.75-1.81-1.64-4.33-2.47-7.55-2.47s-5.41.56-7.02,1.66c-1.61,1.11-2.42,2.66-2.42,4.65,0,1.3.35,2.45,1.06,3.45.71,1,2.04,1.86,4.01,2.58,1.96.73,4.8,1.44,8.5,2.12,5.11.92,9.21,2.15,12.27,3.68,3.07,1.53,5.23,3.37,6.49,5.51,1.26,2.15,1.89,4.59,1.89,7.35,0,3.29-.83,6.2-2.48,8.73-1.65,2.53-4.17,4.48-7.55,5.86-3.38,1.38-7.67,2.07-12.87,2.07Z"/>
            <path class="cls-2" d="m812.92,306.67h-13.34v-68.92h13.34v68.92Zm-8.26-25.96v-12.29h40.24v12.29h-40.24Zm1.18-42.96h42.49v12.29h-42.49v-12.29Z"/>
            <path class="cls-2" d="m870.05,245.45h-13.81v-9.19h13.81v9.19Zm-.47,61.22h-12.75v-53.99h12.75v53.99Z"/>
            <path class="cls-2" d="m892,236.26v70.41h-12.75v-70.41h12.75Z"/>
            <path class="cls-2" d="m911.82,267.5h3.42l-2.24,4.94c.47-5.05,1.57-9.15,3.3-12.29,1.73-3.14,4.01-5.4,6.85-6.78,2.83-1.38,5.98-2.07,9.44-2.07,4.4,0,7.97.88,10.68,2.64,2.71,1.76,4.68,4.16,5.9,7.18,1.22,3.02,1.83,6.45,1.83,10.28v35.26h-12.75v-31.82c0-2.3-.37-4.35-1.12-6.14-.75-1.8-1.95-3.29-3.6-4.48-1.65-1.19-3.94-1.78-6.84-1.78-2.76,0-5.1.48-7.02,1.44-1.93.96-3.42,2.35-4.48,4.19-1.06,1.84-1.59,4.06-1.59,6.66v31.93h-12.75v-70.41h12.75v34.92l-1.77-3.68Z"/>
            <path class="cls-2" d="m985.11,308.17c-5.9,0-10.98-1.15-15.23-3.45-4.25-2.3-7.51-5.61-9.8-9.94-2.28-4.32-3.42-9.4-3.42-15.22s1.2-11.07,3.6-15.28c2.4-4.21,5.72-7.42,9.97-9.65,4.25-2.22,9.21-3.33,14.87-3.33s10.62,1.11,14.87,3.33c4.25,2.22,7.55,5.44,9.91,9.65,2.36,4.21,3.54,9.3,3.54,15.28,0,8.88-2.52,15.87-7.55,20.96-5.04,5.09-11.96,7.64-20.77,7.64Zm0-45.6c-4.96,0-8.81,1.51-11.57,4.54-2.76,3.02-4.13,7.14-4.13,12.35,0,3.45.61,6.47,1.83,9.07,1.22,2.61,2.99,4.63,5.31,6.09,2.32,1.46,5.13,2.18,8.44,2.18,5.03,0,8.93-1.59,11.68-4.77,2.75-3.18,4.13-7.37,4.13-12.58,0-3.45-.63-6.43-1.89-8.96-1.26-2.53-3.07-4.48-5.43-5.86-2.36-1.38-5.15-2.07-8.38-2.07Z"/>
          </g>
        </g>
        <g>
          <path class="cls-1" d="m426.36,333.92h10.7c5.29,0,8.53,2.76,8.53,7.24,0,2.98-1.32,5.11-3.86,6.18,2.83.92,4.26,3.05,4.26,6.18,0,4.59-3.2,7.28-8.75,7.28h-10.88v-26.88Zm4.71,4.15v7.32h5.7c2.57,0,4.01-1.36,4.01-3.75s-1.47-3.57-4.12-3.57h-5.59Zm0,11.29v7.28h5.99c2.65,0,4.12-1.29,4.12-3.71,0-2.28-1.51-3.57-4.12-3.57h-5.99Z"/>
          <path class="cls-1" d="m462.06,361.24c-7.68,0-12.98-5.7-12.98-13.9s5.33-13.9,13.02-13.9,13.05,5.7,13.05,13.9-5.37,13.9-13.09,13.9Zm.04-23.27c-4.93,0-8.09,3.64-8.09,9.38s3.16,9.38,8.09,9.38,8.09-3.71,8.09-9.38-3.16-9.38-8.09-9.38Z"/>
          <path class="cls-1" d="m484.56,356.46h11.25v4.34h-15.96v-26.88h4.71v22.54Z"/>
          <path class="cls-1" d="m507.05,333.44c5.44,0,8.9,3.01,9.05,7.87h-4.71c-.11-2.32-1.77-3.68-4.41-3.68-2.9,0-4.78,1.4-4.78,3.64,0,1.91,1.03,2.98,3.27,3.49l4.23.92c4.6.99,6.84,3.35,6.84,7.35,0,5-3.9,8.23-9.82,8.23s-9.49-3.05-9.6-7.87h4.71c.04,2.28,1.88,3.64,4.89,3.64s5.11-1.36,5.11-3.6c0-1.8-.92-2.87-3.13-3.35l-4.26-.96c-4.56-.99-6.95-3.6-6.95-7.72,0-4.71,3.9-7.98,9.56-7.98Z"/>
          <path class="cls-1" d="m518.56,360.8l9.71-26.88h4.82l9.71,26.88h-4.96l-2.17-6.21h-10.04l-2.17,6.21h-4.89Zm8.46-10.18h7.28l-3.09-8.68c-.22-.7-.48-1.51-.55-2.06-.11.51-.33,1.32-.59,2.06l-3.05,8.68Z"/>
          <path class="cls-1" d="m556.75,360.8v-26.88h10.26c6.1,0,9.67,3.09,9.67,8.38,0,3.6-1.69,6.18-4.85,7.46l5.11,11.03h-5.15l-4.56-10.04h-5.77v10.04h-4.71Zm4.71-14.19h5.55c2.98,0,4.74-1.58,4.74-4.3s-1.77-4.19-4.74-4.19h-5.55v8.49Z"/>
          <path class="cls-1" d="m581.72,360.8v-26.88h16.69v4.34h-11.99v6.91h10.74v4.15h-10.74v7.13h11.99v4.34h-16.69Z"/>
          <path class="cls-1" d="m608.55,360.8h-4.71v-26.88h4.71v26.88Z"/>
          <path class="cls-1" d="m612.49,333.92h20.44v4.34h-7.87v22.54h-4.71v-22.54h-7.87v-4.34Z"/>
          <path class="cls-1" d="m647.23,361.24c-7.68,0-12.98-5.7-12.98-13.9s5.33-13.9,13.02-13.9,13.05,5.7,13.05,13.9-5.37,13.9-13.09,13.9Zm.04-23.27c-4.93,0-8.09,3.64-8.09,9.38s3.16,9.38,8.09,9.38,8.09-3.71,8.09-9.38-3.16-9.38-8.09-9.38Z"/>
          <path class="cls-1" d="m665.02,360.8v-26.88h10.26c6.1,0,9.67,3.09,9.67,8.38,0,3.6-1.69,6.18-4.85,7.46l5.11,11.03h-5.15l-4.56-10.04h-5.77v10.04h-4.71Zm4.71-14.19h5.55c2.98,0,4.74-1.58,4.74-4.3s-1.77-4.19-4.74-4.19h-5.55v8.49Z"/>
          <path class="cls-1" d="m687.41,360.8l9.71-26.88h4.82l9.71,26.88h-4.96l-2.17-6.21h-10.04l-2.17,6.21h-4.89Zm8.46-10.18h7.28l-3.09-8.68c-.22-.7-.48-1.51-.55-2.06-.11.51-.33,1.32-.59,2.06l-3.05,8.68Z"/>
          <path class="cls-1" d="m720.05,356.46h11.25v4.34h-15.96v-26.88h4.71v22.54Z"/>
          <path class="cls-1" d="m745.71,360.8v-26.88h9.41c7.94,0,13.42,5.48,13.42,13.49s-5.37,13.38-13.16,13.38h-9.67Zm4.71-22.54v18.2h4.52c5.37,0,8.64-3.46,8.64-9.04s-3.35-9.16-8.9-9.16h-4.26Z"/>
          <path class="cls-1" d="m773.25,360.8v-26.88h16.69v4.34h-11.99v6.91h10.74v4.15h-10.74v7.13h11.99v4.34h-16.69Z"/>
          <path class="cls-1" d="m810.34,356.46h11.25v4.34h-15.96v-26.88h4.71v22.54Z"/>
          <path class="cls-1" d="m830.45,360.8h-4.71v-26.88h4.71v26.88Z"/>
          <path class="cls-1" d="m836.73,360.8v-26.88h9.41c7.94,0,13.42,5.48,13.42,13.49s-5.37,13.38-13.16,13.38h-9.67Zm4.71-22.54v18.2h4.52c5.37,0,8.64-3.46,8.64-9.04s-3.35-9.16-8.9-9.16h-4.26Z"/>
          <path class="cls-1" d="m864.27,360.8v-26.88h16.69v4.34h-11.99v6.91h10.74v4.15h-10.74v7.13h11.99v4.34h-16.69Z"/>
          <path class="cls-1" d="m886.4,360.8v-26.88h10.26c6.1,0,9.67,3.09,9.67,8.38,0,3.6-1.69,6.18-4.85,7.46l5.11,11.03h-5.15l-4.56-10.04h-5.77v10.04h-4.71Zm4.71-14.19h5.55c2.98,0,4.74-1.58,4.74-4.3s-1.77-4.19-4.74-4.19h-5.55v8.49Z"/>
          <path class="cls-1" d="m908.79,360.8l9.71-26.88h4.82l9.71,26.88h-4.96l-2.17-6.21h-10.04l-2.17,6.21h-4.89Zm8.46-10.18h7.28l-3.09-8.68c-.22-.7-.48-1.51-.55-2.06-.11.51-.33,1.32-.59,2.06l-3.05,8.68Z"/>
          <path class="cls-1" d="m936.73,360.8v-26.88h4.67l12.61,19.04v-19.04h4.63v26.88h-4.63l-12.65-19.04v19.04h-4.63Z"/>
          <path class="cls-1" d="m973.6,365.94c.85.4,1.54.66,2.46.66,1.25,0,1.95-.55,1.95-1.4s-.59-1.25-1.58-1.25c-.7,0-1.21.11-1.8.33l-.44-1.25.88-1.84c-7.13-.55-11.69-5.85-11.69-13.82s5.26-13.9,13.13-13.9c6.36,0,11.1,3.71,12.02,9.49h-4.96c-.92-3.13-3.6-4.96-7.17-4.96-4.96,0-8.09,3.6-8.09,9.34s3.16,9.38,8.09,9.38c3.64,0,6.43-1.91,7.32-4.89h4.89c-.99,5.48-5.63,9.15-11.66,9.41l-.62,1.25c.37-.11.77-.18,1.21-.18,1.43,0,2.94.85,2.94,2.87,0,2.28-1.88,3.46-4.15,3.46-1.14,0-1.95-.22-2.72-.63v-2.06Z"/>
          <path class="cls-1" d="m989.44,360.8l9.71-26.88h4.82l9.71,26.88h-4.96l-2.17-6.21h-10.04l-2.17,6.21h-4.89Zm8.46-10.18h7.28l-3.09-8.68c-.22-.7-.48-1.51-.55-2.06-.11.51-.33,1.32-.59,2.06l-3.05,8.68Z"/>
        </g>
      </g>
    </g>
  </g>
</svg>